<!DOCTYPE svg PUBLIC "-//W3C//DTD SVG 20010904//EN" "http://www.w3.org/TR/2001/REC-SVG-20010904/DTD/svg10.dtd">
<svg version="1.0" xmlns="http://www.w3.org/2000/svg" width="171px" height="201px" viewBox="0 0 1710 2010" preserveAspectRatio="xMidYMid meet">
<g id="layer1" fill="#de3100" stroke="none">
 <path d="M280 1851 c0 -10 30 -24 37 -17 3 3 2 9 -2 15 -8 13 -35 15 -35 2z"/>
 <path d="M860 1820 c0 -5 5 -10 10 -10 6 0 10 5 10 10 0 6 -4 10 -10 10 -5 0 -10 -4 -10 -10z"/>
 <path d="M725 1779 c-4 -6 -5 -13 -2 -16 7 -7 27 6 27 18 0 12 -17 12 -25 -2z"/>
 <path d="M940 1730 c0 -5 5 -10 10 -10 6 0 10 5 10 10 0 6 -4 10 -10 10 -5 0 -10 -4 -10 -10z"/>
 <path d="M260 1710 c0 -5 9 -10 20 -10 11 0 20 5 20 10 0 6 -9 10 -20 10 -11 0 -20 -4 -20 -10z"/>
 <path d="M840 1690 c0 -5 5 -10 10 -10 6 0 10 5 10 10 0 6 -4 10 -10 10 -5 0 -10 -4 -10 -10z"/>
 <path d="M368 1623 c7 -3 16 -2 19 1 4 3 -2 6 -13 5 -11 0 -14 -3 -6 -6z"/>
 <path d="M1370 1420 c0 -5 5 -10 10 -10 6 0 10 5 10 10 0 6 -4 10 -10 10 -5 0 -10 -4 -10 -10z"/>
 <path d="M890 1360 c0 -5 5 -10 10 -10 6 0 10 5 10 10 0 6 -4 10 -10 10 -5 0 -10 -4 -10 -10z"/>
 <path d="M400 1300 c0 -5 5 -10 10 -10 6 0 10 5 10 10 0 6 -4 10 -10 10 -5 0 -10 -4 -10 -10z"/>
 <path d="M1300 1270 c0 -5 7 -10 15 -10 8 0 15 5 15 10 0 6 -7 10 -15 10 -8 0 -15 -4 -15 -10z"/>
 <path d="M420 1240 c0 -5 5 -10 10 -10 6 0 10 5 10 10 0 6 -4 10 -10 10 -5 0 -10 -4 -10 -10z"/>
 <path d="M870 1230 c0 -5 5 -10 10 -10 6 0 10 5 10 10 0 6 -4 10 -10 10 -5 0 -10 -4 -10 -10z"/>
 <path d="M925 1209 c-4 -6 -5 -13 -2 -16 7 -7 27 6 27 18 0 12 -17 12 -25 -2z"/>
 <path d="M1370 1000 c0 -5 5 -10 10 -10 6 0 10 5 10 10 0 6 -4 10 -10 10 -5 0 -10 -4 -10 -10z"/>
 <path d="M230 970 c0 -5 5 -10 10 -10 6 0 10 5 10 10 0 6 -4 10 -10 10 -5 0 -10 -4 -10 -10z"/>
 <path d="M330 960 c0 -5 5 -10 10 -10 6 0 10 5 10 10 0 6 -4 10 -10 10 -5 0 -10 -4 -10 -10z"/>
 <path d="M890 940 c0 -5 5 -10 10 -10 6 0 10 5 10 10 0 6 -4 10 -10 10 -5 0 -10 -4 -10 -10z"/>
 <path d="M400 880 c0 -5 5 -10 10 -10 6 0 10 5 10 10 0 6 -4 10 -10 10 -5 0 -10 -4 -10 -10z"/>
 <path d="M800 860 c0 -5 5 -10 10 -10 6 0 10 5 10 10 0 6 -4 10 -10 10 -5 0 -10 -4 -10 -10z"/>
 <path d="M1300 850 c0 -5 7 -10 15 -10 8 0 15 5 15 10 0 6 -7 10 -15 10 -8 0 -15 -4 -15 -10z"/>
 <path d="M310 830 c0 -5 5 -10 10 -10 6 0 10 5 10 10 0 6 -4 10 -10 10 -5 0 -10 -4 -10 -10z"/>
 <path d="M420 820 c0 -5 5 -10 10 -10 6 0 10 5 10 10 0 6 -4 10 -10 10 -5 0 -10 -4 -10 -10z"/>
 <path d="M870 810 c0 -5 5 -10 10 -10 6 0 10 5 10 10 0 6 -4 10 -10 10 -5 0 -10 -4 -10 -10z"/>
 <path d="M930 795 c-7 -9 -10 -18 -7 -22 8 -7 37 15 37 28 0 14 -16 11 -30 -6z"/>
 <path d="M104 617 c-2 -7 -3 -74 -2 -148 l3 -134 55 0 54 0 8 42 c14 81 63 125 144 125 75 0 124 -45 142 -128 l8 -39 89 0 90 0 8 30 c27 90 54 121 120 134 78 17 151 -32 172 -116 l12 -48 88 0 89 0 12 49 c23 88 100 137 181 114 45 -12 90 -56 98 -94 15 -70 21 -75 78 -72 l52 3 0 145 0 145 -748 3 c-608 2 -749 0 -753 -11z"/>
 </g>
<g id="layer2" fill="#ffffff" stroke="none">
 <path d="M104 1887 c-2 -7 -3 -80 -2 -162 l3 -150 205 0 205 0 0 160 0 160 -203 3 c-160 2 -204 0 -208 -11z m264 -123 l71 -81 -30 -29 -29 -28 -49 48 c-42 41 -51 46 -69 37 -17 -9 -24 -6 -47 21 l-26 31 48 43 c26 24 51 42 54 41 3 -1 38 -38 77 -83z"/>
 <path d="M604 1887 c-2 -7 -3 -80 -2 -162 l3 -150 240 0 240 0 0 160 0 160 -238 3 c-189 2 -239 0 -243 -11z m346 -168 l29 -36 -30 -29 -31 -29 -45 49 c-41 46 -46 49 -66 37 -19 -12 -24 -11 -49 20 -15 18 -27 34 -25 35 1 1 25 21 52 43 l50 41 43 -47 c23 -27 55 -64 72 -84z"/>
 <path d="M1174 1887 c-2 -7 -3 -80 -2 -162 l3 -150 215 0 215 0 0 160 0 160 -213 3 c-168 2 -214 0 -218 -11z"/>
 <path d="M104 1467 c-2 -7 -3 -80 -2 -162 l3 -150 205 0 205 0 0 160 0 160 -203 3 c-160 2 -204 0 -208 -11z m261 -126 c36 -41 65 -78 65 -83 0 -5 -12 -20 -27 -33 l-28 -25 -47 52 c-45 51 -47 52 -66 35 -19 -17 -21 -17 -46 15 l-26 33 47 42 c27 24 51 42 55 40 4 -1 37 -35 73 -76z"/>
 <path d="M604 1467 c-2 -7 -3 -80 -2 -162 l3 -150 240 0 240 0 0 160 0 160 -238 3 c-189 2 -239 0 -243 -11z m306 -128 l72 -82 -31 -31 -32 -31 -43 50 c-39 45 -45 48 -67 38 -21 -9 -27 -7 -51 21 l-27 31 47 42 c26 23 50 42 54 43 3 0 39 -37 78 -81z"/>
 <path d="M1174 1467 c-2 -7 -3 -80 -2 -162 l3 -150 215 0 215 0 0 160 0 160 -213 3 c-168 2 -214 0 -218 -11z m270 -128 l69 -81 -30 -30 -30 -30 -46 49 c-42 43 -48 47 -67 35 -18 -11 -23 -9 -45 15 -13 16 -24 33 -24 38 0 11 86 85 97 84 4 0 38 -36 76 -80z"/>
 <path d="M104 1047 c-2 -7 -3 -82 -2 -167 l3 -155 205 0 205 0 0 165 0 165 -203 3 c-160 2 -204 0 -208 -11z m256 -119 c34 -39 64 -78 67 -85 3 -7 -8 -24 -24 -38 l-28 -25 -47 52 c-45 51 -47 52 -66 35 -19 -17 -21 -17 -46 15 l-27 33 48 43 c26 23 50 42 54 42 3 0 34 -32 69 -72z"/>
 <path d="M604 1047 c-2 -7 -3 -82 -2 -167 l3 -155 240 0 240 0 0 165 0 165 -238 3 c-188 2 -239 0 -243 -11z m306 -128 l72 -82 -31 -31 -32 -31 -43 50 c-39 45 -45 48 -67 38 -21 -9 -27 -7 -51 21 l-27 31 47 42 c26 23 50 42 54 43 3 0 39 -37 78 -81z"/>
 <path d="M1174 1047 c-2 -7 -3 -82 -2 -167 l3 -155 215 0 215 0 0 165 0 165 -213 3 c-168 2 -214 0 -218 -11z m270 -128 l69 -81 -30 -30 -30 -30 -46 49 c-42 43 -48 47 -67 35 -18 -11 -23 -9 -45 15 -13 16 -24 33 -24 38 0 11 86 85 97 84 4 0 38 -36 76 -80z"/>
 <path d="M319 393 c-10 -11 -15 -52 -17 -127 -3 -102 -2 -114 18 -139 24 -31 46 -34 78 -11 21 14 22 22 22 138 0 106 -2 125 -18 139 -24 22 -66 22 -83 0z"/>
 <path d="M806 388 c-12 -17 -16 -49 -16 -133 0 -104 2 -113 23 -133 29 -27 51 -28 77 -2 18 18 20 33 20 138 0 103 -3 121 -18 135 -26 24 -68 21 -86 -5z"/>
 <path d="M1297 392 c-14 -15 -17 -41 -17 -135 0 -104 2 -119 20 -137 26 -26 52 -25 78 3 20 21 22 34 22 133 0 83 -4 115 -16 132 -19 27 -64 29 -87 4z"/>
 </g>
<g id="layer3" fill="#000000" stroke="none">
 <path d="M13 1995 c-18 -20 -19 -1745 -1 -1763 7 -7 43 -12 94 -12 l81 0 7 -58 c12 -110 68 -162 172 -162 104 0 164 62 164 167 l0 53 74 0 73 0 6 -62 c6 -67 24 -100 77 -135 42 -29 129 -31 179 -5 46 23 81 89 81 154 l0 48 75 0 75 0 0 -48 c0 -64 34 -129 80 -153 50 -27 137 -26 180 4 54 36 73 70 78 137 l4 60 84 0 c74 0 84 2 98 22 14 20 16 120 16 879 0 816 -1 857 -18 872 -17 16 -90 17 -843 17 -699 -1 -826 -3 -836 -15z m487 -260 l0 -145 -190 0 -190 0 0 145 0 145 190 0 190 0 0 -145z m570 0 l0 -145 -225 0 -225 0 0 145 0 145 225 0 225 0 0 -145z m520 0 l0 -145 -200 0 -200 0 0 145 0 145 200 0 200 0 0 -145z m-1090 -420 l0 -145 -190 0 -190 0 0 145 0 145 190 0 190 0 0 -145z m570 0 l0 -145 -225 0 -225 0 0 145 0 145 225 0 225 0 0 -145z m520 0 l0 -145 -200 0 -200 0 0 145 0 145 200 0 200 0 0 -145z m-1090 -425 l0 -150 -190 0 -190 0 0 150 0 150 190 0 190 0 0 -150z m570 0 l0 -150 -225 0 -225 0 0 150 0 150 225 0 225 0 0 -150z m520 0 l0 -150 -200 0 -200 0 0 150 0 150 200 0 200 0 0 -150z m0 -410 l0 -130 -40 0 c-42 0 -43 2 -55 54 -9 40 -72 102 -118 114 -79 22 -177 -40 -199 -125 l-10 -43 -72 0 -72 0 -11 43 c-8 26 -27 57 -52 81 -36 35 -47 40 -98 44 -48 3 -64 0 -92 -20 -44 -30 -71 -67 -80 -109 l-7 -34 -77 -3 c-67 -2 -77 -1 -77 14 0 35 -43 105 -78 129 -43 29 -116 34 -162 10 -40 -20 -80 -76 -87 -119 -5 -34 -8 -36 -44 -36 l-39 0 0 130 0 130 735 0 735 0 0 -130z m-1195 -225 l0 -130 -24 -3 c-41 -6 -51 21 -51 134 0 126 3 136 44 132 l31 -3 0 -130z m493 3 l3 -127 -26 -7 c-47 -12 -55 7 -55 126 0 133 3 142 44 138 l31 -3 3 -127z m490 6 c3 -133 -4 -152 -53 -140 l-25 6 0 124 c0 67 3 126 7 130 4 4 21 6 38 4 l30 -3 3 -121z"/>
 <path d="M226 1816 c-53 -48 -54 -59 -12 -110 22 -27 25 -28 46 -13 20 14 24 13 62 -29 22 -24 48 -44 57 -44 17 0 71 49 71 64 0 16 -145 175 -160 175 -8 0 -37 -19 -64 -43z"/>
 <path d="M772 1815 c-29 -26 -52 -50 -52 -54 0 -4 15 -25 34 -47 33 -37 35 -38 52 -22 17 17 20 15 65 -35 l47 -52 36 34 c20 19 36 40 36 45 0 15 -138 170 -154 174 -7 2 -36 -18 -64 -43z"/>
 <path d="M232 1392 c-29 -26 -52 -52 -52 -57 0 -6 13 -26 29 -45 27 -32 31 -34 52 -22 20 13 25 11 61 -32 22 -25 45 -46 52 -46 7 0 27 15 45 34 l34 35 -27 32 c-74 88 -130 149 -135 149 -3 0 -30 -22 -59 -48z"/>
 <path d="M767 1387 c-26 -23 -47 -46 -47 -52 0 -5 13 -26 29 -45 26 -31 31 -33 55 -22 24 11 28 8 63 -33 20 -25 41 -45 47 -45 17 0 76 51 76 65 0 21 -140 175 -159 175 -9 -1 -37 -20 -64 -43z"/>
 <path d="M1303 1388 c-26 -23 -48 -46 -48 -51 0 -5 11 -24 25 -43 26 -34 48 -42 67 -23 7 7 24 -5 57 -42 l47 -53 41 42 42 41 -78 85 c-43 47 -84 86 -91 86 -8 0 -35 -19 -62 -42z"/>
 <path d="M232 972 c-29 -26 -52 -52 -52 -57 0 -6 13 -26 29 -45 27 -32 31 -34 52 -21 22 13 25 11 62 -33 21 -25 44 -46 51 -46 7 0 27 15 45 34 l34 35 -27 32 c-74 88 -130 149 -135 149 -3 0 -30 -22 -59 -48z"/>
 <path d="M772 972 c-28 -26 -52 -51 -52 -57 0 -5 14 -26 30 -45 27 -33 31 -34 52 -21 21 13 25 11 63 -33 23 -25 45 -46 49 -46 15 0 76 53 76 66 0 14 -147 184 -159 184 -3 -1 -30 -22 -59 -48z"/>
 <path d="M1303 968 c-26 -23 -48 -46 -48 -51 0 -5 11 -24 25 -43 26 -34 48 -42 67 -23 7 7 24 -5 57 -42 l47 -53 41 42 42 41 -78 85 c-43 47 -84 86 -91 86 -8 0 -35 -19 -62 -42z"/>
 </g>

</svg>