<!DOCTYPE svg PUBLIC "-//W3C//DTD SVG 20010904//EN" "http://www.w3.org/TR/2001/REC-SVG-20010904/DTD/svg10.dtd">
<svg version="1.0" xmlns="http://www.w3.org/2000/svg" width="189px" height="200px" viewBox="0 0 1890 2000" preserveAspectRatio="xMidYMid meet">
<g id="layer1" fill="#f0c419" stroke="none">
 <path d="M438 304 c-33 -18 -58 -62 -58 -103 0 -38 50 -97 90 -106 61 -13 120 44 120 116 0 33 -6 47 -34 75 -38 38 -73 43 -118 18z"/>
 </g>
<g id="layer2" fill="#4fb96f" stroke="none">
 <path d="M712 286 c-32 -30 -37 -40 -37 -80 0 -85 85 -138 153 -96 39 24 66 80 57 121 -4 15 -22 42 -41 59 -47 41 -84 40 -132 -4z"/>
 </g>
<g id="layer3" fill="#bdc3c7" stroke="none">
 <path d="M522 1788 c-17 -17 -15 -42 6 -61 17 -15 59 -17 399 -17 355 0 381 1 396 18 20 22 22 43 5 60 -17 17 -789 17 -806 0z"/>
 <path d="M678 1635 c-8 -19 -8 -28 2 -40 10 -13 48 -15 245 -15 197 0 235 2 245 15 10 12 10 21 2 40 l-12 25 -235 0 -235 0 -12 -25z"/>
 <path d="M1878 252 c4 -264 8 -284 10 -45 1 116 -1 214 -5 216 -5 3 -7 -74 -5 -171z"/>
 </g>
<g id="layer4" fill="#ed7161" stroke="none">
 <path d="M850 1444 c-75 -20 -126 -52 -188 -118 -161 -170 -159 -425 3 -592 199 -204 517 -142 637 124 111 244 -33 536 -290 591 -67 14 -94 13 -162 -5z m15 -291 l74 -78 78 78 c80 79 97 88 107 62 3 -9 -20 -44 -64 -94 -39 -43 -70 -85 -70 -92 0 -7 32 -45 71 -86 39 -40 69 -78 67 -85 -11 -33 -42 -17 -113 59 l-74 78 -72 -77 c-41 -45 -79 -78 -90 -78 -37 0 -19 40 52 114 81 86 82 80 -10 171 -39 38 -61 67 -61 82 0 41 29 25 105 -54z"/>
 <path d="M1 414 c0 -11 3 -14 6 -6 3 7 2 16 -1 19 -3 4 -6 -2 -5 -13z"/>
 <path d="M1881 414 c0 -11 3 -14 6 -6 3 7 2 16 -1 19 -3 4 -6 -2 -5 -13z"/>
 <path d="M154 311 c-34 -15 -64 -60 -64 -98 0 -68 42 -112 106 -113 36 0 47 5 74 37 29 32 32 41 27 81 -3 29 -13 53 -29 68 -27 27 -81 39 -114 25z"/>
 </g>
<g id="layer5" fill="#546a79" stroke="none">
 <path d="M0 210 l0 -210 940 0 940 0 0 210 0 210 -940 0 -940 0 0 -210z m258 66 c8 -8 16 -34 19 -58 4 -37 1 -49 -19 -72 -52 -61 -148 -22 -148 60 0 44 15 72 43 84 28 12 87 5 105 -14z m287 -1 c46 -45 32 -131 -25 -155 -77 -32 -146 52 -109 134 23 49 95 61 134 21z m288 5 c72 -57 17 -185 -73 -165 -43 9 -65 40 -65 92 0 37 5 49 28 69 34 29 76 31 110 4z"/>
 </g>
<g id="layer6" fill="#ecf0f1" stroke="none">
 <path d="M2 1203 l3 -798 920 -3 c506 -1 930 0 943 3 l22 5 0 795 0 795 -945 0 -945 0 2 -797z m1316 555 l-3 -23 -390 0 -390 0 -3 23 -3 22 396 0 396 0 -3 -22z m-160 -140 c3 -17 -13 -18 -232 -18 -190 0 -236 3 -236 13 0 8 3 17 7 21 4 3 108 5 232 4 206 -3 226 -5 229 -20z m-146 -189 c195 -42 320 -216 306 -427 -13 -176 -118 -310 -282 -357 -164 -47 -356 42 -430 199 -112 237 5 516 244 580 68 18 95 19 162 5z"/>
 <path d="M752 1238 c-24 -24 -12 -54 49 -113 92 -91 91 -85 10 -171 -70 -73 -82 -99 -59 -122 24 -24 48 -11 118 66 l72 77 71 -78 c40 -42 79 -77 88 -77 16 0 49 30 49 44 0 4 -34 43 -76 87 l-76 79 72 80 c74 82 84 111 48 134 -15 9 -31 -2 -99 -69 l-81 -80 -72 78 c-71 77 -91 88 -114 65z"/>
 </g>

</svg>