<!DOCTYPE svg PUBLIC "-//W3C//DTD SVG 20010904//EN" "http://www.w3.org/TR/2001/REC-SVG-20010904/DTD/svg10.dtd">
<svg version="1.0" xmlns="http://www.w3.org/2000/svg" width="656px" height="626px" viewBox="0 0 6560 6260" preserveAspectRatio="xMidYMid meet">
<g id="layer1" fill="#fefefe" stroke="none">
 <path d="M3623 3460 c-38 -23 -67 -73 -59 -104 3 -12 18 -34 34 -49 l29 -28 34 20 c41 25 67 26 97 3 22 -17 22 -17 -22 -14 -38 3 -49 0 -72 -23 -22 -22 -31 -25 -43 -16 -9 6 -34 21 -56 33 -75 40 -206 22 -236 -33 -11 -21 -11 -21 -32 -1 -74 67 -209 69 -246 5 -9 -17 -11 -16 -33 3 -52 48 -118 58 -159 25 -22 -18 -26 -18 -41 -4 -10 9 -39 18 -66 21 -41 4 -52 0 -81 -24 -30 -25 -35 -26 -55 -14 -51 32 -74 40 -124 40 -48 0 -58 -4 -86 -32 l-32 -33 -55 30 c-46 25 -68 30 -144 33 -86 4 -92 3 -122 -22 l-31 -26 -57 30 c-31 16 -70 30 -86 30 -42 0 -93 -24 -115 -53 l-19 -24 -55 30 c-47 27 -66 32 -145 35 -87 4 -92 3 -123 -23 -30 -25 -34 -26 -50 -12 -31 28 -92 49 -124 42 -34 -8 -68 -56 -68 -96 0 -14 11 -48 25 -75 14 -27 25 -50 25 -52 0 -6 -89 59 -97 71 -4 6 -12 41 -18 77 l-11 65 -37 3 c-31 3 -43 -2 -67 -28 -18 -20 -31 -27 -35 -19 -4 6 -35 24 -69 40 -147 70 -310 11 -347 -123 -28 -107 14 -224 119 -327 103 -101 235 -155 323 -131 73 20 93 94 39 145 l-30 29 -28 -21 c-21 -16 -26 -28 -24 -52 2 -29 0 -31 -31 -31 -35 0 -107 40 -144 81 -65 72 -92 196 -55 255 39 62 137 82 219 44 35 -15 47 -30 74 -82 55 -109 162 -240 239 -292 53 -35 100 -6 100 63 0 30 -9 44 -59 92 l-58 57 40 -14 c52 -18 81 -18 98 2 11 13 10 23 -6 62 -10 26 -20 61 -22 79 -5 28 -3 31 16 26 12 -3 30 -22 41 -42 10 -20 40 -56 67 -79 26 -23 57 -50 68 -60 11 -10 28 -22 39 -25 30 -12 98 13 129 46 27 29 29 36 25 95 l-4 63 22 -44 c31 -61 112 -131 169 -147 40 -11 51 -11 81 4 29 13 35 21 32 44 -3 24 -6 27 -38 24 -52 -4 -75 5 -88 33 -31 68 -3 112 63 99 28 -5 42 -17 72 -62 22 -32 67 -79 107 -109 63 -48 73 -53 105 -47 42 8 86 37 102 66 6 12 11 42 11 67 l-1 46 18 -57 c23 -72 52 -119 116 -187 63 -68 122 -111 151 -111 53 0 70 88 34 168 -11 24 -51 75 -89 114 -70 69 -79 91 -40 103 35 12 83 -13 106 -54 27 -47 92 -102 148 -126 44 -18 210 -32 218 -17 4 4 -5 43 -19 86 -23 75 -30 116 -18 116 42 0 131 -130 111 -161 -16 -25 -1 -49 31 -49 20 0 42 -14 82 -55 58 -59 73 -64 101 -39 17 16 17 18 -17 60 -39 47 -38 64 6 64 38 0 46 15 25 47 -16 23 -22 25 -65 20 -43 -5 -48 -4 -59 19 -30 66 2 105 69 85 26 -8 40 -18 44 -34 16 -66 131 -150 221 -162 42 -6 54 -4 78 15 60 48 16 138 -85 173 -43 14 -43 15 -15 22 42 11 115 -20 136 -58 55 -101 133 -168 171 -147 20 11 20 12 -6 45 -49 65 -63 145 -25 145 36 0 111 -103 111 -153 0 -36 24 -53 55 -39 29 13 31 32 10 117 -21 90 -19 93 30 45 40 -39 47 -43 60 -29 13 13 12 21 -11 67 -27 55 -93 119 -131 128 -12 4 -33 22 -45 43 -80 133 -166 179 -245 131z m-2049 -331 c26 -30 37 -99 17 -99 -36 0 -71 46 -71 93 0 46 19 48 54 6z m631 5 c14 -15 25 -33 25 -40 0 -7 2 -18 5 -26 3 -7 1 -19 -4 -27 -17 -27 -58 2 -71 50 -19 70 2 89 45 43z m642 -20 c18 -20 40 -49 49 -65 18 -35 8 -37 -52 -10 -46 21 -74 54 -74 88 0 35 37 29 77 -13z m661 -40 c18 -12 32 -54 18 -54 -18 0 -39 17 -52 41 -17 34 -3 39 34 13z m-903 -139 c8 -18 15 -43 15 -56 0 -21 -1 -21 -18 -6 -19 18 -55 85 -67 127 l-7 25 30 -29 c17 -16 38 -44 47 -61z m-1351 -41 c10 -14 16 -29 14 -34 -2 -5 -13 6 -26 25 -12 19 -18 35 -13 35 5 0 16 -12 25 -26z"/>
 <path d="M4353 3296 c-117 -55 -151 -210 -76 -348 102 -188 378 -308 463 -201 28 36 25 69 -9 103 -31 32 -58 31 -86 0 -14 -15 -14 -22 -5 -40 26 -49 -49 -42 -125 10 -74 51 -134 173 -121 244 18 96 140 147 235 98 29 -14 38 -27 55 -82 28 -86 62 -143 128 -212 61 -63 112 -98 145 -98 34 0 57 42 51 93 -8 67 -37 116 -112 191 -54 55 -67 73 -59 85 25 40 94 18 123 -40 28 -54 93 -124 131 -139 27 -12 33 -11 52 9 20 20 20 23 6 34 -57 43 -93 157 -50 157 14 0 30 -18 52 -60 29 -55 116 -150 137 -150 6 0 20 9 33 19 23 18 23 20 7 38 -25 27 -48 87 -48 123 0 28 3 31 23 25 28 -9 32 -13 45 -53 27 -80 183 -315 218 -329 8 -3 23 2 34 12 18 16 17 19 -21 88 -21 40 -39 75 -39 79 0 4 13 5 30 2 38 -8 84 11 106 43 12 19 15 41 12 84 -2 33 -1 59 3 59 4 0 19 -14 32 -31 17 -21 30 -30 41 -26 22 9 20 35 -7 82 -48 84 -152 135 -279 135 -60 0 -71 -3 -100 -29 l-32 -28 -39 28 c-49 36 -114 40 -141 10 -18 -19 -18 -19 -49 0 -50 30 -112 26 -148 -10 -16 -16 -31 -25 -35 -20 -14 23 -86 49 -135 49 -45 0 -55 -4 -84 -33 l-34 -34 -28 23 c-78 65 -209 82 -300 40z m1217 -184 c26 -32 36 -70 22 -84 -15 -15 -67 8 -92 40 -19 23 -27 72 -14 85 11 10 64 -15 84 -41z m-668 -161 c15 -25 28 -56 28 -70 0 -24 0 -24 -21 -5 -24 22 -44 58 -65 117 l-14 40 21 -19 c12 -10 35 -39 51 -63z"/>
 </g>
<g id="layer2" fill="#a1cccc" stroke="none">
 <path d="M2838 5939 c-206 -22 -422 -70 -635 -143 -892 -306 -1589 -1064 -1823 -1981 -202 -789 -56 -1624 398 -2290 558 -819 1468 -1284 2447 -1252 1420 48 2587 1139 2735 2557 15 143 12 457 -5 605 -60 511 -245 969 -562 1394 -115 153 -391 429 -544 544 -425 317 -884 502 -1395 562 -138 16 -481 18 -616 4z m1599 -963 l28 -24 3 -822 c2 -638 5 -822 15 -824 88 -24 130 -41 163 -65 l39 -30 31 35 c28 30 37 34 83 34 51 0 121 -26 136 -51 5 -7 18 0 36 20 23 26 36 31 71 31 25 0 56 -8 75 -19 31 -19 31 -19 49 0 27 30 92 26 141 -10 l39 -28 32 28 c29 26 40 29 101 29 122 0 223 -46 261 -120 31 -60 24 -65 -27 -21 -49 44 -71 43 -53 -3 5 -15 10 -49 10 -76 0 -41 -4 -52 -26 -69 -29 -23 -59 -26 -98 -11 -42 16 -40 -5 8 -96 39 -72 43 -86 29 -91 -11 -4 -27 6 -49 33 -42 49 -150 230 -166 275 -14 44 -27 59 -56 70 -32 12 -52 -4 -52 -43 0 -34 24 -95 47 -121 15 -16 15 -19 3 -27 -23 -14 -27 -13 -70 26 -22 20 -54 65 -71 100 -23 45 -39 66 -56 70 -31 8 -53 -12 -53 -48 0 -34 12 -59 52 -110 24 -31 27 -39 15 -44 -37 -14 -108 49 -152 136 -23 46 -59 70 -103 70 -17 0 -62 -38 -62 -53 0 -5 30 -39 68 -76 69 -68 99 -116 109 -176 19 -115 -53 -112 -166 6 -59 62 -99 133 -121 214 -15 54 -21 62 -60 82 -28 15 -59 23 -89 22 -86 -1 -82 8 -82 -189 l0 -175 43 -32 c59 -44 112 -56 139 -34 18 15 20 21 10 39 -14 26 -9 38 20 45 25 7 59 -24 59 -54 0 -75 -102 -96 -225 -45 -19 8 -38 14 -40 13 -3 -1 -6 -204 -8 -452 -2 -492 -1 -484 -61 -505 -16 -5 -49 -10 -74 -10 -181 0 -404 -149 -495 -330 -38 -76 -67 -184 -67 -252 0 -49 -17 -83 -47 -97 -34 -16 -1832 -16 -1866 0 -14 6 -30 22 -36 36 -8 17 -11 289 -11 955 0 785 -2 933 -14 947 -7 9 -23 35 -35 58 -31 62 -82 84 -60 26 5 -13 9 -46 9 -72 0 -57 -22 -85 -81 -101 -34 -9 -45 -8 -62 4 -12 9 -38 27 -58 40 -39 27 -75 67 -101 115 -30 55 -88 59 -88 6 0 -13 9 -44 20 -70 11 -26 20 -53 20 -61 0 -30 -101 -6 -172 41 -21 14 -40 20 -43 15 -11 -18 15 -48 68 -78 93 -53 134 -117 111 -176 -26 -69 -192 81 -284 256 -58 110 -112 145 -211 136 -93 -9 -155 -81 -147 -173 11 -126 146 -271 245 -263 37 3 38 4 38 41 0 27 6 41 18 49 38 21 71 -43 51 -96 -10 -25 -73 -37 -133 -26 -170 32 -326 191 -339 345 -12 142 65 224 208 225 69 0 153 -31 197 -72 l22 -21 11 29 c13 34 26 44 61 44 25 0 27 -4 34 -55 4 -36 15 -65 31 -84 30 -37 120 -95 133 -86 6 3 -2 25 -19 52 -77 121 -30 215 82 165 24 -10 49 -26 57 -35 12 -15 16 -14 42 14 l29 31 93 -4 c81 -3 100 -8 148 -35 l55 -31 32 36 32 35 3 840 2 839 24 19 c23 18 58 19 1297 19 l1273 0 28 -24z"/>
 <path d="M4175 4808 c-3 -7 -4 -242 -3 -523 l3 -510 50 0 50 0 0 520 0 520 -48 3 c-32 2 -49 -1 -52 -10z"/>
 <path d="M4175 3568 c-3 -7 -4 -242 -3 -523 l3 -510 50 0 50 0 5 215 c4 165 2 223 -8 249 -18 45 -18 152 -1 188 11 22 13 68 9 208 l-5 180 -48 3 c-32 2 -49 -1 -52 -10z"/>
 <path d="M1518 3169 c-39 -22 -7 -126 47 -151 73 -33 73 91 -1 147 -23 17 -24 17 -46 4z"/>
 <path d="M5477 3168 c-11 -6 -17 -22 -17 -43 0 -41 43 -96 91 -115 27 -12 33 -11 51 8 26 26 19 59 -22 106 -35 40 -78 58 -103 44z"/>
 <path d="M4815 3048 c-17 -43 92 -223 123 -204 34 21 -8 115 -81 185 -29 27 -38 31 -42 19z"/>
 <path d="M1195 2950 c-4 -6 10 -36 30 -67 34 -51 38 -54 53 -39 15 15 15 18 0 44 -23 38 -74 76 -83 62z"/>
 <path d="M4177 2344 c-4 -4 -7 -62 -7 -129 l0 -121 -74 -18 c-89 -21 -198 -72 -281 -131 -108 -76 -239 -234 -233 -278 3 -20 9 -22 74 -25 l71 -3 28 41 c42 60 136 144 216 191 72 43 221 99 263 99 43 0 47 17 44 201 l-3 174 -45 3 c-25 2 -49 0 -53 -4z"/>
 <path d="M3502 1448 c-7 -7 -12 -18 -12 -25 0 -9 -33 -13 -127 -15 l-128 -3 0 -55 0 -55 179 0 179 0 18 75 c9 41 15 78 13 82 -8 13 -109 9 -122 -4z"/>
 <path d="M1994 1396 c-3 -7 -4 -33 -2 -57 l3 -44 525 0 525 0 0 55 0 55 -523 3 c-439 2 -523 0 -528 -12z"/>
 </g>
<g id="layer3" fill="#89634a" stroke="none">
 <path d="M1995 4818 c-3 -7 -4 -247 -3 -533 l3 -520 516 -3 c428 -2 518 0 528 12 8 10 10 155 9 532 l-3 519 -523 3 c-413 2 -524 0 -527 -10z m585 -174 c10 -12 30 -73 30 -93 0 -9 -12 -29 -26 -45 -25 -28 -27 -29 -137 -30 l-112 -1 -3 -171 c-2 -137 0 -173 12 -183 9 -8 65 -11 182 -9 l169 3 5 117 c6 140 13 152 91 152 42 0 54 -4 70 -24 16 -22 19 -44 19 -201 0 -196 -2 -201 -65 -218 -43 -12 -500 -15 -577 -5 -77 11 -78 13 -78 369 l0 306 24 22 c23 21 31 22 206 21 100 -1 185 -6 190 -10z"/>
 <path d="M3235 4818 c-3 -7 -4 -247 -3 -533 l3 -520 478 0 477 0 0 530 0 530 -475 3 c-375 2 -477 0 -480 -10z m588 -193 c16 -16 26 -34 23 -42 -3 -8 -6 -27 -6 -42 0 -46 -45 -64 -164 -65 l-101 -1 -3 -171 c-2 -137 0 -173 12 -183 9 -8 65 -11 182 -9 l169 3 5 118 c5 109 7 120 28 138 16 12 35 17 61 15 49 -4 60 -11 77 -52 17 -41 19 -295 3 -342 -21 -60 -27 -61 -354 -61 -288 0 -297 0 -326 21 l-29 22 0 322 0 323 23 18 c21 16 43 18 198 16 l174 -1 28 -27z"/>
 <path d="M1996 3582 c-3 -5 -6 -82 -6 -171 -2 -147 0 -164 17 -176 16 -12 20 -11 39 12 14 18 34 28 65 32 44 6 44 6 45 48 1 33 7 49 28 68 15 14 31 23 36 20 5 -3 11 -1 15 5 8 13 282 14 290 0 3 -5 12 -7 19 -4 7 3 23 -3 36 -14 29 -24 39 -96 15 -122 -15 -16 -14 -19 16 -38 l33 -20 28 30 c26 28 33 30 78 26 29 -3 59 -13 70 -23 20 -18 21 -18 41 3 28 31 86 29 134 -4 22 -15 41 -22 47 -16 5 5 7 85 6 178 l-3 169 -522 3 c-287 1 -524 -2 -527 -6z"/>
 <path d="M3237 3583 c-4 -3 -7 -75 -7 -159 0 -149 1 -154 23 -165 12 -6 32 -20 43 -31 21 -19 22 -19 40 5 11 13 30 29 43 36 19 11 22 19 18 49 -3 29 1 45 20 70 15 19 31 31 39 28 7 -3 16 -1 19 4 4 6 34 10 68 10 35 1 73 7 87 15 42 24 95 19 132 -14 18 -15 39 -26 45 -24 12 4 36 -37 38 -63 1 -26 38 -63 80 -84 27 -13 59 -40 76 -63 17 -23 44 -46 61 -52 47 -15 56 -54 57 -236 l1 -155 -28 -27 -28 -27 -312 0 c-299 0 -313 1 -332 20 -18 18 -20 33 -20 161 0 138 -1 142 -27 173 -14 17 -32 46 -40 64 -14 34 -78 72 -94 55 -4 -4 -9 -39 -10 -78 l-2 -69 40 2 c28 2 42 -1 46 -11 4 -11 -5 -16 -33 -21 -21 -3 -41 -10 -44 -15 -4 -5 12 -32 33 -59 22 -27 37 -53 34 -56 -11 -11 -40 -6 -53 9 -7 8 -15 13 -19 11 -3 -2 -4 -80 -1 -173 l5 -168 469 -3 c259 -1 473 1 478 6 4 4 8 239 8 522 l1 515 -474 3 c-260 1 -477 -1 -480 -5z"/>
 <path d="M3926 3182 c-8 -13 8 -65 21 -69 14 -5 36 34 28 47 -10 16 -43 31 -49 22z"/>
 <path d="M1989 3174 c-4 -44 5 -141 13 -152 8 -9 8 -19 -1 -35 -8 -15 -11 -85 -9 -232 l3 -210 514 -3 c374 -1 517 1 528 9 11 10 13 65 11 302 l-3 290 -27 20 c-22 17 -30 18 -43 7 -20 -17 -19 -36 9 -124 l24 -76 -65 2 -65 2 1 -116 2 -117 -29 -21 c-27 -20 -38 -21 -329 -21 -316 0 -346 4 -357 45 -3 11 -6 73 -6 138 l0 116 -40 32 c-22 18 -51 51 -65 74 -26 45 -64 86 -66 70z"/>
 <path d="M2538 3169 c-10 -5 -23 -19 -28 -30 -10 -17 -2 -28 59 -88 43 -41 79 -86 91 -115 12 -25 25 -44 31 -41 5 4 9 42 9 86 0 69 -4 87 -27 126 -35 60 -93 87 -135 62z"/>
 <path d="M3576 3173 c-15 -16 -5 -67 19 -89 17 -16 25 -34 25 -57 0 -26 -6 -39 -25 -51 -28 -19 -35 -75 -11 -95 9 -8 66 -11 182 -9 l169 3 3 39 c2 21 -1 43 -7 49 -6 6 -11 22 -11 34 0 79 -135 211 -165 162 -16 -26 -6 -83 24 -131 18 -28 30 -53 27 -55 -12 -12 -72 36 -102 82 -19 28 -41 60 -49 72 -18 26 -69 55 -79 46z"/>
 <path d="M2337 3163 c-3 -5 -2 -28 2 -53 4 -25 4 -56 0 -70 -12 -42 -10 -145 3 -158 12 -12 149 -17 161 -6 3 3 -10 26 -29 51 -45 59 -58 86 -79 158 -22 75 -43 103 -58 78z"/>
 <path d="M2887 3073 c-4 -3 -7 -19 -7 -35 0 -30 19 -44 45 -34 12 4 12 11 -6 41 -23 38 -23 38 -32 28z"/>
 <path d="M2506 3052 c-8 -13 22 -99 51 -144 17 -28 30 -38 48 -38 34 0 40 21 21 62 -20 42 -111 134 -120 120z"/>
 <path d="M1995 2338 c-3 -7 -4 -222 -3 -478 l3 -465 525 0 525 0 0 475 0 475 -523 3 c-413 2 -524 0 -527 -10z m591 -181 c20 -23 23 -35 18 -75 -8 -71 -17 -76 -152 -82 l-117 -5 -3 -171 c-2 -137 0 -173 12 -183 9 -8 65 -11 182 -9 l169 3 5 110 c6 121 16 148 64 165 39 13 98 -14 107 -50 4 -14 7 -95 8 -180 1 -137 -1 -159 -19 -187 l-19 -32 -303 -3 c-332 -3 -360 0 -372 48 -4 14 -7 161 -7 325 0 319 2 330 51 349 14 5 99 8 188 7 l164 -2 24 -28z"/>
 <path d="M3235 2338 c-3 -7 -4 -222 -3 -478 l3 -465 129 -3 c71 -1 133 1 137 5 4 4 9 19 11 33 2 19 -2 25 -17 26 -41 1 -73 16 -84 41 -15 33 -17 607 -2 645 14 38 58 48 217 48 145 0 187 -8 200 -39 27 -65 21 -111 -16 -136 -8 -5 -64 -12 -125 -15 l-110 -5 -3 -149 c-1 -82 2 -154 7 -159 5 -5 26 14 52 50 126 170 270 269 463 318 l91 23 0 133 0 134 -473 3 c-373 2 -474 0 -477 -10z"/>
 </g>
<g id="layer4" fill="#845f47" stroke="none">
 <path d="M2205 4671 c-7 -12 12 -24 25 -16 11 7 4 25 -10 25 -5 0 -11 -4 -15 -9z"/>
 <path d="M2546 4671 c-9 -15 23 -36 35 -24 8 8 5 14 -9 22 -12 6 -23 7 -26 2z"/>
 <path d="M3805 4651 c-7 -12 12 -24 25 -16 11 7 4 25 -10 25 -5 0 -11 -4 -15 -9z"/>
 <path d="M2150 4624 c-9 -10 -10 -18 -3 -25 8 -8 14 -5 22 9 13 25 -2 38 -19 16z"/>
 <path d="M3975 4396 c-14 -10 -15 -15 -6 -21 8 -4 19 -1 28 8 20 19 1 30 -22 13z"/>
 <path d="M4035 4401 c-7 -12 12 -24 25 -16 11 7 4 25 -10 25 -5 0 -11 -4 -15 -9z"/>
 <path d="M2725 4391 c-7 -12 12 -24 25 -16 11 7 4 25 -10 25 -5 0 -11 -4 -15 -9z"/>
 <path d="M2825 4391 c-7 -12 12 -24 25 -16 11 7 4 25 -10 25 -5 0 -11 -4 -15 -9z"/>
 <path d="M2235 3440 c-4 -6 -11 -8 -16 -4 -13 7 -41 -15 -33 -27 3 -5 10 -7 15 -4 5 4 18 8 30 10 36 7 297 7 308 0 6 -3 16 -3 21 0 15 9 1 27 -16 21 -7 -3 -16 -1 -19 4 -8 14 -282 13 -290 0z"/>
 <path d="M3475 3440 c-3 -6 -11 -8 -16 -4 -13 7 -41 -15 -33 -27 3 -5 15 -4 26 2 12 6 49 12 82 13 34 0 63 6 66 11 7 14 -116 19 -125 5z"/>
 <path d="M3786 3432 c-3 -5 0 -17 7 -26 12 -16 14 -16 26 -3 10 13 9 17 -8 26 -11 6 -22 7 -25 3z"/>
 <path d="M3375 3360 c-4 -6 -3 -16 3 -22 6 -6 12 -6 17 2 4 6 3 16 -3 22 -6 6 -12 6 -17 -2z"/>
 <path d="M2135 3350 c-4 -6 -3 -16 3 -22 6 -6 12 -6 17 2 4 6 3 16 -3 22 -6 6 -12 6 -17 -2z"/>
 <path d="M4056 3161 c-9 -15 23 -36 35 -24 8 8 5 14 -9 22 -12 6 -23 7 -26 2z"/>
 <path d="M2515 2560 c-337 -3 -520 -9 -520 -15 0 -7 182 -11 519 -13 496 -2 561 1 531 26 -6 4 -244 5 -530 2z"/>
 <path d="M3235 2550 c-3 -6 0 -12 7 -15 26 -10 943 0 943 10 0 14 -941 19 -950 5z"/>
 <path d="M2225 2201 c-3 -5 -2 -12 3 -15 12 -7 341 -10 348 -3 4 4 -5 11 -20 17 -34 13 -323 13 -331 1z"/>
 <path d="M3465 2200 c-3 -5 0 -12 7 -15 25 -10 308 0 311 10 3 14 -309 19 -318 5z"/>
 <path d="M2770 1925 c-13 -16 -12 -17 20 -17 11 0 23 0 26 1 9 1 -16 31 -26 31 -4 0 -13 -7 -20 -15z"/>
 </g>
<g id="layer5" fill="#79624e" stroke="none">
 <path d="M2525 4671 c-7 -12 12 -24 25 -16 11 7 4 25 -10 25 -5 0 -11 -4 -15 -9z"/>
 <path d="M3412 4646 c-27 -25 -34 -38 -26 -46 8 -8 16 -4 28 15 9 14 28 30 42 35 14 6 22 14 19 20 -10 17 -24 12 -63 -24z"/>
 <path d="M3765 4671 c-7 -12 12 -24 25 -16 11 7 4 25 -10 25 -5 0 -11 -4 -15 -9z"/>
 <path d="M2181 4657 c-6 -8 -8 -17 -5 -20 10 -9 45 13 39 24 -9 13 -21 11 -34 -4z"/>
 <path d="M2576 4652 c-3 -6 1 -15 8 -21 8 -7 17 -8 20 -3 3 6 -1 15 -8 21 -8 7 -17 8 -20 3z"/>
 <path d="M3845 4600 c-4 -6 -3 -16 3 -22 6 -6 12 -6 17 2 4 6 3 16 -3 22 -6 6 -12 6 -17 -2z"/>
 <path d="M2605 4550 c-4 -6 -3 -16 3 -22 6 -6 12 -6 17 2 4 6 3 16 -3 22 -6 6 -12 6 -17 -2z"/>
 <path d="M3831 4522 c-13 -25 2 -38 19 -16 9 10 10 18 3 25 -8 8 -14 5 -22 -9z"/>
 <path d="M2541 4483 c-22 -9 -30 -18 -24 -24 11 -11 57 3 67 20 11 17 -8 19 -43 4z"/>
 <path d="M3755 4471 c-7 -12 12 -24 25 -16 11 7 4 25 -10 25 -5 0 -11 -4 -15 -9z"/>
 <path d="M2755 4400 c-7 -12 5 -17 40 -16 17 1 29 5 28 11 -3 12 -61 16 -68 5z"/>
 <path d="M3995 4401 c-7 -12 12 -24 25 -16 11 7 4 25 -10 25 -5 0 -11 -4 -15 -9z"/>
 <path d="M4055 4391 c-6 -11 29 -33 39 -24 7 7 -12 33 -25 33 -4 0 -10 -4 -14 -9z"/>
 <path d="M2701 4364 c-23 -29 -26 -40 -12 -48 5 -3 18 10 30 29 24 42 11 56 -18 19z"/>
 <path d="M2847 4384 c-3 -3 4 -21 15 -40 14 -23 24 -32 31 -25 6 6 2 20 -12 40 -24 33 -25 34 -34 25z"/>
 <path d="M3946 4371 c-10 -11 -13 -22 -8 -25 5 -3 17 3 26 13 10 11 13 22 8 25 -5 3 -17 -3 -26 -13z"/>
 <path d="M2861 3975 c-24 -42 -11 -56 18 -19 23 29 26 40 12 48 -5 3 -18 -10 -30 -29z"/>
 <path d="M3386 3982 c-3 -6 1 -15 8 -21 8 -7 17 -8 20 -3 3 6 -1 15 -8 21 -8 7 -17 8 -20 3z"/>
 <path d="M2176 3952 c-3 -6 1 -15 8 -21 8 -7 17 -8 20 -3 3 6 -1 15 -8 21 -8 7 -17 8 -20 3z"/>
 <path d="M3445 3931 c-7 -12 12 -24 25 -16 11 7 4 25 -10 25 -5 0 -11 -4 -15 -9z"/>
 <path d="M4035 3931 c-7 -12 12 -24 25 -16 11 7 4 25 -10 25 -5 0 -11 -4 -15 -9z"/>
 <path d="M2555 3420 c-3 -6 1 -13 10 -16 9 -4 23 -20 31 -36 8 -16 19 -26 24 -23 15 10 12 21 -16 54 -27 33 -39 38 -49 21z"/>
 <path d="M3405 3411 c-7 -12 12 -24 25 -16 11 7 4 25 -10 25 -5 0 -11 -4 -15 -9z"/>
 <path d="M3810 3405 c-7 -8 -11 -15 -9 -16 31 -6 40 -6 44 1 3 4 -1 13 -9 19 -10 9 -16 8 -26 -4z"/>
 <path d="M2150 3384 c-9 -10 -10 -18 -3 -25 8 -8 14 -5 22 9 13 25 -2 38 -19 16z"/>
 <path d="M3836 3361 c-3 -5 1 -14 8 -20 16 -13 32 2 21 19 -8 12 -22 13 -29 1z"/>
 <path d="M2604 3304 c-4 -10 -9 -22 -11 -26 -2 -4 1 -9 6 -13 15 -9 35 35 22 48 -7 7 -12 5 -17 -9z"/>
 <path d="M4035 3160 c-11 -17 5 -32 21 -19 7 6 11 15 8 20 -7 12 -21 11 -29 -1z"/>
 <path d="M3961 3146 c-7 -8 -8 -17 -3 -20 6 -3 15 1 21 8 7 8 8 17 3 20 -6 3 -15 -1 -21 -8z"/>
 <path d="M4086 3142 c-3 -6 1 -15 8 -21 8 -7 17 -8 20 -3 3 6 -1 15 -8 21 -8 7 -17 8 -20 3z"/>
 <path d="M4115 2770 c-4 -6 -3 -16 3 -22 6 -6 12 -6 17 2 4 6 3 16 -3 22 -6 6 -12 6 -17 -2z"/>
 <path d="M2866 2742 c-20 -38 -4 -51 19 -16 11 18 14 29 7 36 -7 7 -15 0 -26 -20z"/>
 <path d="M3384 2749 c-9 -15 53 -76 65 -64 5 6 -5 23 -25 42 -21 21 -36 29 -40 22z"/>
 <path d="M2156 2732 c-3 -6 1 -15 8 -21 8 -7 17 -8 20 -3 3 6 -1 15 -8 21 -8 7 -17 8 -20 3z"/>
 <path d="M2215 2691 c-7 -12 12 -24 25 -16 11 7 4 25 -10 25 -5 0 -11 -4 -15 -9z"/>
 <path d="M2795 2691 c-7 -12 12 -24 25 -16 11 7 4 25 -10 25 -5 0 -11 -4 -15 -9z"/>
 <path d="M2176 2175 c-32 -30 -51 -74 -37 -88 7 -7 15 4 26 30 9 23 27 45 41 52 14 6 22 16 19 21 -9 15 -20 12 -49 -15z"/>
 <path d="M3416 2179 c-37 -29 -23 -42 19 -18 19 12 32 25 29 30 -8 14 -19 11 -48 -12z"/>
 <path d="M3775 2190 c-3 -5 8 -16 24 -25 36 -18 51 -3 19 19 -26 18 -35 20 -43 6z"/>
 <path d="M2568 2184 c-3 -3 6 -23 20 -45 15 -23 29 -36 35 -30 5 5 5 16 -1 28 -14 25 -47 54 -54 47z"/>
 <path d="M3375 2120 c-4 -6 -3 -16 3 -22 6 -6 12 -6 17 2 4 6 3 16 -3 22 -6 6 -12 6 -17 -2z"/>
 <path d="M3845 2080 c-4 -6 -3 -16 3 -22 6 -6 12 -6 17 2 4 6 3 16 -3 22 -6 6 -12 6 -17 -2z"/>
 <path d="M2590 2041 c-6 -12 -23 -26 -37 -32 -18 -7 -23 -13 -16 -20 13 -13 39 -1 67 30 14 16 16 25 9 32 -8 8 -14 5 -23 -10z"/>
 <path d="M3802 2018 c-22 -14 -30 -24 -23 -31 12 -12 74 30 66 44 -4 5 -7 9 -8 8 -1 0 -17 -10 -35 -21z"/>
 <path d="M2732 1914 c-32 -22 -17 -37 19 -19 16 9 27 20 24 25 -8 14 -17 12 -43 -6z"/>
 <path d="M2806 1922 c-3 -5 12 -21 34 -35 48 -31 62 -19 19 17 -32 27 -44 31 -53 18z"/>
 <path d="M2135 1550 c-4 -6 -3 -16 3 -22 6 -6 12 -6 17 2 4 6 3 16 -3 22 -6 6 -12 6 -17 -2z"/>
 <path d="M3375 1540 c-4 -6 -3 -16 3 -22 6 -6 12 -6 17 2 4 6 3 16 -3 22 -6 6 -12 6 -17 -2z"/>
 <path d="M2156 1492 c-3 -5 3 -17 13 -26 11 -10 22 -13 25 -8 3 5 -3 17 -13 26 -11 10 -22 13 -25 8z"/>
 <path d="M3406 1482 c-3 -6 1 -15 8 -21 8 -7 17 -8 20 -3 3 6 -1 15 -8 21 -8 7 -17 8 -20 3z"/>
 <path d="M2825 1466 c-14 -10 -15 -15 -6 -21 8 -4 19 -1 28 8 20 19 1 30 -22 13z"/>
 <path d="M2225 1451 c-7 -12 12 -24 25 -16 11 7 4 25 -10 25 -5 0 -11 -4 -15 -9z"/>
 <path d="M3465 1451 c-7 -12 12 -24 25 -16 11 7 4 25 -10 25 -5 0 -11 -4 -15 -9z"/>
 </g>
<g id="layer6" fill="#0a0808" stroke="none">
 <path d="M2770 6248 c-237 -19 -534 -91 -795 -194 -980 -389 -1713 -1260 -1925 -2289 -68 -328 -65 -960 5 -1292 100 -472 324 -940 636 -1324 448 -551 1095 -949 1782 -1094 332 -70 964 -73 1292 -5 1211 250 2180 1211 2439 2420 52 244 61 334 61 660 0 242 -4 330 -18 425 -98 656 -365 1219 -804 1700 -518 567 -1263 940 -1983 994 -166 13 -520 12 -690 -1z m684 -333 c418 -49 833 -194 1180 -413 348 -220 669 -540 886 -885 223 -356 366 -761 415 -1182 17 -148 20 -462 5 -605 -77 -737 -433 -1412 -990 -1877 -489 -409 -1090 -639 -1725 -660 -1413 -47 -2632 947 -2874 2341 -48 274 -52 616 -11 890 156 1043 877 1914 1863 2252 213 73 429 121 635 143 135 14 478 12 616 -4z"/>
 <path d="M1828 4991 l-33 -29 0 -839 0 -838 52 3 c36 2 66 -3 99 -17 25 -12 50 -18 55 -15 5 3 9 75 9 160 l0 154 510 0 511 0 -1 -171 c-2 -175 7 -219 31 -166 16 35 56 50 126 45 l58 -3 3 148 3 147 452 0 c248 0 476 -3 505 -6 l52 -7 0 -163 c0 -169 7 -197 39 -157 23 30 78 55 136 62 l50 6 0 823 0 824 -37 34 -38 34 -1275 0 -1275 0 -32 -29z m1202 -696 l0 -515 -510 0 -510 0 0 515 0 515 510 0 510 0 0 -515z m1178 509 l52 -7 0 -502 0 -502 -52 -7 c-29 -3 -257 -6 -505 -6 l-453 0 0 515 0 515 453 0 c248 0 476 -3 505 -6z"/>
 <path d="M2174 4636 l-34 -34 0 -306 0 -306 34 -38 34 -37 284 -3 c320 -4 347 0 385 57 21 32 23 44 23 188 0 164 -7 196 -52 227 -29 20 -87 20 -116 0 -40 -27 -52 -66 -52 -164 l0 -90 -165 0 -165 0 0 165 0 165 99 0 c93 0 101 2 131 27 17 14 36 37 41 51 13 33 -5 86 -38 112 -24 18 -40 20 -200 20 l-175 0 -34 -34z"/>
 <path d="M3424 4652 c-42 -34 -44 -49 -44 -366 l0 -304 29 -30 c17 -16 44 -32 62 -36 58 -11 551 -6 588 7 66 23 76 50 79 215 4 172 -5 214 -51 242 -50 31 -93 26 -133 -14 l-34 -34 0 -101 0 -101 -165 0 -165 0 0 165 0 165 101 0 101 0 34 34 c28 28 34 42 34 76 0 34 -6 47 -31 71 l-31 29 -177 0 c-152 0 -179 -3 -197 -18z"/>
 <path d="M2225 3433 c-55 -15 -90 -65 -83 -119 3 -27 6 -29 62 -35 32 -4 85 -19 117 -34 l58 -28 31 33 c29 31 32 32 93 27 34 -3 71 -7 82 -9 13 -2 24 6 33 25 18 37 0 90 -41 121 -26 19 -43 21 -180 23 -84 1 -161 -1 -172 -4z"/>
 <path d="M3442 3423 c-45 -22 -64 -53 -60 -100 l3 -38 70 -1 c68 -1 108 -14 167 -57 15 -10 22 -8 43 16 28 29 78 37 115 17 36 -19 33 10 -5 45 -42 40 -66 43 -115 14 l-34 -21 -24 27 c-17 21 -22 35 -18 54 14 57 15 56 -49 58 -40 2 -71 -2 -93 -14z"/>
 <path d="M3806 3412 c-3 -6 4 -23 17 -38 15 -17 26 -23 31 -16 3 6 -4 23 -17 38 -15 17 -26 23 -31 16z"/>
 <path d="M1897 3170 c-59 -47 -14 -160 65 -160 37 0 48 19 48 86 0 67 -8 80 -56 90 -21 4 -37 0 -57 -16z"/>
 <path d="M3481 3174 c-19 -8 -31 -17 -27 -21 12 -12 125 -51 131 -45 3 3 5 18 5 33 0 47 -46 61 -109 33z"/>
 <path d="M2146 3161 c-24 -26 -12 -87 25 -123 33 -34 54 -35 73 -5 20 31 10 72 -29 113 -37 39 -46 41 -69 15z"/>
 <path d="M3197 3160 c-33 -26 -35 -62 -7 -107 22 -36 32 -40 49 -19 15 18 10 138 -5 143 -6 2 -23 -6 -37 -17z"/>
 <path d="M4417 3141 c-46 -51 -55 -95 -32 -163 20 -61 72 -141 88 -135 9 3 12 52 12 168 0 188 -6 199 -68 130z"/>
 <path d="M2762 3158 c-20 -20 -14 -54 15 -89 27 -32 100 -72 115 -63 4 3 8 21 8 39 0 27 -9 45 -43 80 -44 45 -73 55 -95 33z"/>
 <path d="M4044 3145 c-4 -8 -4 -22 0 -30 8 -22 -5 -18 -36 12 l-28 27 -21 -21 c-19 -19 -20 -24 -8 -83 12 -61 11 -64 -9 -78 -15 -10 -22 -25 -22 -48 l0 -34 -164 0 -165 0 -3 37 c-3 37 -4 37 -59 49 -32 6 -73 21 -94 33 -20 11 -41 19 -46 16 -5 -4 -9 -67 -9 -142 l0 -135 34 -34 34 -34 310 0 309 0 27 25 c40 37 46 65 46 216 0 151 -10 194 -51 223 -29 20 -38 20 -45 1z"/>
 <path d="M3037 3144 c-4 -4 -7 -139 -7 -301 l0 -293 -510 0 -510 0 -2 213 -3 212 -28 -3 c-38 -4 -94 15 -135 45 -17 13 -37 21 -42 18 -7 -4 -10 -329 -10 -931 0 -1015 -3 -966 60 -999 25 -13 145 -15 940 -15 1000 0 952 -3 985 60 8 16 15 46 15 67 0 69 29 177 67 253 88 174 297 310 477 310 60 0 107 20 131 56 19 28 20 52 23 475 l3 446 -63 46 c-35 26 -83 74 -107 107 -24 33 -47 57 -52 54 -5 -3 -9 -97 -9 -210 l0 -204 -505 0 -505 0 0 160 0 161 -46 49 c-31 33 -55 50 -70 50 -27 0 -32 15 -9 23 11 5 6 20 -25 73 -44 76 -53 87 -63 78z m-7 -1324 l0 -510 -510 0 -510 0 0 510 0 510 510 0 510 0 0 -510z m1230 340 l0 -170 -25 0 c-43 0 -192 -56 -267 -100 -46 -27 -107 -77 -165 -136 l-93 -94 -54 0 c-67 0 -66 -2 -66 183 l0 137 90 0 c98 0 137 12 164 52 20 29 20 87 0 116 -31 45 -63 52 -224 52 -114 0 -158 -4 -180 -15 -60 -31 -60 -30 -60 -368 l0 -309 34 -34 c33 -33 36 -34 114 -34 l79 0 -15 -65 -16 -65 -163 0 -163 0 0 510 0 510 505 0 505 0 0 -170z"/>
 <path d="M2198 2185 c-56 -31 -58 -46 -58 -376 l0 -301 34 -34 34 -34 301 0 c333 0 346 2 376 61 13 25 16 60 13 194 -3 181 -7 193 -75 222 -28 11 -38 11 -65 0 -63 -27 -73 -48 -76 -163 l-4 -104 -164 0 -164 0 0 164 0 164 104 4 c115 3 136 13 163 76 11 27 11 37 0 65 -29 68 -41 72 -226 74 -133 2 -171 0 -193 -12z"/>
 <path d="M3445 3100 c-9 -14 22 -68 50 -86 20 -13 28 -14 40 -4 23 19 18 46 -16 74 -31 27 -63 34 -74 16z"/>
 <path d="M2686 3063 c-3 -4 -6 -59 -6 -124 0 -134 -3 -149 -35 -149 -23 0 -86 42 -119 79 -16 18 -30 21 -98 21 l-78 0 0 53 c0 30 -3 57 -6 60 -4 4 -19 -2 -33 -12 -14 -10 -42 -21 -62 -25 -30 -5 -40 -2 -63 19 -15 14 -32 23 -37 20 -5 -4 -9 -63 -9 -132 l0 -125 34 -34 34 -34 310 0 c292 0 311 1 334 20 39 30 49 67 46 169 -3 103 -1 100 -77 122 -24 7 -63 28 -86 46 -23 17 -45 29 -49 26z"/>
 <path d="M2586 2881 c-3 -4 3 -16 14 -26 23 -21 47 -8 37 19 -7 17 -42 22 -51 7z"/>
 </g>

</svg>