<!DOCTYPE svg PUBLIC "-//W3C//DTD SVG 20010904//EN" "http://www.w3.org/TR/2001/REC-SVG-20010904/DTD/svg10.dtd">
<svg version="1.0" xmlns="http://www.w3.org/2000/svg" width="170px" height="201px" viewBox="0 0 1700 2010" preserveAspectRatio="xMidYMid meet">
<g id="layer1" fill="#89634a" stroke="none">
 <path d="M125 1897 c-3 -7 -4 -129 -3 -272 l3 -260 330 0 330 0 0 270 0 270 -328 3 c-259 2 -329 0 -332 -11z m352 -83 c12 -3 25 -15 29 -26 10 -34 -20 -52 -94 -58 l-67 -5 0 -90 0 -90 110 0 110 0 5 58 c7 73 37 95 91 67 17 -9 19 -22 19 -98 0 -55 -4 -92 -12 -100 -17 -17 -409 -17 -426 0 -8 8 -12 60 -12 170 0 139 2 158 18 167 18 11 192 15 229 5z"/>
 <path d="M905 1897 c-3 -7 -4 -129 -3 -272 l3 -260 305 0 305 0 0 270 0 270 -303 3 c-239 2 -304 0 -307 -11z m366 -87 c21 -12 26 -55 7 -66 -7 -5 -44 -11 -83 -14 l-70 -5 0 -90 0 -90 115 0 115 0 5 60 c4 54 8 61 32 69 20 7 33 5 52 -8 24 -15 26 -22 26 -92 0 -121 14 -114 -230 -114 -197 0 -210 1 -220 19 -5 11 -10 84 -10 165 0 180 -3 176 143 176 54 0 107 -5 118 -10z"/>
 <path d="M125 1267 c-3 -7 -4 -129 -3 -272 l3 -260 330 0 330 0 0 270 0 270 -328 3 c-259 2 -329 0 -332 -11z m373 -99 c16 -16 15 -45 0 -55 -7 -4 -44 -10 -83 -13 l-70 -5 0 -90 0 -90 110 0 110 0 3 50 c4 60 15 75 56 75 49 0 56 -14 56 -112 0 -76 -2 -89 -19 -98 -26 -13 -386 -13 -412 0 -18 10 -19 23 -19 168 0 110 4 162 12 170 17 17 239 17 256 0z"/>
 <path d="M905 1267 c-3 -7 -4 -129 -3 -272 l3 -260 305 0 305 0 0 270 0 270 -303 3 c-239 2 -304 0 -307 -11z m369 -93 c19 -7 21 -47 3 -62 -7 -6 -44 -12 -82 -14 l-70 -3 0 -90 0 -90 115 0 115 0 3 55 c4 60 12 70 59 70 43 0 53 -21 53 -114 0 -107 3 -106 -237 -106 -161 0 -194 3 -207 16 -13 13 -16 42 -16 160 0 81 5 154 10 165 10 17 22 19 125 19 62 0 120 -3 129 -6z"/>
 <path d="M125 627 c-3 -7 -4 -118 -3 -247 l3 -235 330 0 330 0 0 245 0 245 -328 3 c-259 2 -329 0 -332 -11z m366 -87 c22 -12 25 -42 6 -58 -7 -6 -44 -12 -82 -14 l-70 -3 0 -95 0 -95 110 0 110 0 5 58 c7 73 37 95 91 67 17 -9 19 -22 19 -98 0 -55 -4 -92 -12 -100 -17 -17 -409 -17 -426 0 -8 8 -12 60 -12 170 0 139 2 158 18 167 23 14 218 14 243 1z"/>
 <path d="M905 627 c-3 -7 -4 -118 -3 -247 l3 -235 90 0 c83 0 90 1 90 20 0 14 -8 21 -25 23 -45 6 -50 25 -50 183 0 121 3 150 16 163 12 13 39 16 123 16 119 0 145 -10 139 -51 -3 -23 -7 -24 -83 -29 l-80 -5 -3 -87 c-1 -49 1 -88 6 -88 4 0 33 24 64 54 68 66 137 103 243 131 l80 20 0 70 0 70 -303 3 c-239 2 -304 0 -307 -11z"/>
 </g>
<g id="layer2" fill="#000000" stroke="none">
 <path d="M17 1996 c-16 -12 -17 -72 -17 -993 0 -748 3 -982 12 -991 9 -9 160 -12 618 -12 688 0 632 -7 644 85 17 134 176 255 336 255 37 0 55 5 70 20 20 20 20 33 20 818 0 761 -1 800 -18 815 -17 16 -89 17 -833 17 -661 -1 -817 -3 -832 -14z m753 -361 l0 -255 -315 0 -315 0 0 255 0 255 315 0 315 0 0 -255z m790 0 l0 -255 -320 0 -320 0 0 255 0 255 320 0 320 0 0 -255z m-790 -630 l0 -255 -315 0 -315 0 0 255 0 255 315 0 315 0 0 -255z m790 0 l0 -255 -320 0 -320 0 0 255 0 255 320 0 320 0 0 -255z m-790 -635 l0 -250 -315 0 -315 0 0 250 0 250 315 0 315 0 0 -250z m790 175 c0 -73 0 -75 -27 -80 -119 -25 -210 -68 -286 -135 -32 -28 -54 -40 -76 -40 l-31 0 0 80 0 80 67 0 c48 0 72 5 85 17 26 23 22 58 -8 82 -23 18 -41 21 -136 21 -102 0 -110 -1 -133 -25 -24 -23 -25 -28 -25 -173 0 -179 7 -196 91 -207 39 -6 49 -11 47 -24 -3 -13 -20 -16 -106 -19 l-102 -3 0 251 0 250 320 0 320 0 0 -75z"/>
 <path d="M236 1819 l-26 -20 0 -160 c0 -215 -19 -199 245 -199 253 0 245 -4 245 129 0 85 -1 91 -26 110 -59 46 -124 7 -124 -74 l0 -45 -95 0 -95 0 0 75 0 75 50 0 c86 0 136 41 110 90 -17 31 -51 40 -159 40 -84 0 -102 -3 -125 -21z"/>
 <path d="M1021 1814 l-31 -26 0 -148 c0 -134 2 -150 21 -174 l20 -26 209 0 209 0 20 26 c17 22 21 41 21 104 0 75 -1 79 -31 104 -37 31 -58 33 -93 5 -22 -17 -26 -28 -26 -70 l0 -49 -100 0 -100 0 0 74 0 74 64 4 c100 6 140 60 80 107 -23 18 -41 21 -130 21 -96 0 -104 -2 -133 -26z"/>
 <path d="M232 1177 c-21 -22 -22 -33 -22 -179 l0 -157 26 -20 c25 -20 40 -21 219 -21 179 0 194 1 219 21 25 19 26 25 26 110 0 103 -15 129 -73 129 -47 0 -77 -34 -77 -88 l0 -42 -95 0 -95 0 0 75 0 75 59 0 c95 0 139 50 88 98 -21 20 -34 22 -138 22 -108 0 -117 -2 -137 -23z"/>
 <path d="M1011 1174 c-19 -24 -21 -40 -21 -176 0 -145 1 -150 25 -173 24 -25 26 -25 215 -25 199 0 239 7 254 45 3 9 6 49 6 89 0 89 -22 126 -74 126 -54 0 -76 -23 -76 -81 l0 -49 -100 0 -100 0 0 75 0 75 63 0 c53 0 67 4 85 23 28 30 28 62 0 81 -17 12 -50 16 -139 16 -115 0 -118 -1 -138 -26z"/>
 <path d="M236 549 l-26 -20 0 -160 c0 -215 -19 -199 245 -199 253 0 245 -4 245 129 0 85 -1 91 -26 110 -59 46 -124 7 -124 -74 l0 -45 -95 0 -95 0 0 80 0 80 65 0 c52 0 69 4 85 20 27 27 25 55 -6 79 -23 18 -41 21 -134 21 -93 0 -111 -3 -134 -21z"/>
 </g>

</svg>