<!DOCTYPE svg PUBLIC "-//W3C//DTD SVG 20010904//EN" "http://www.w3.org/TR/2001/REC-SVG-20010904/DTD/svg10.dtd">
<svg version="1.0" xmlns="http://www.w3.org/2000/svg" width="456px" height="456px" viewBox="0 0 4560 4560" preserveAspectRatio="xMidYMid meet">
<g id="layer1" fill="#eeeeee" stroke="none">
 <path d="M1990 4445 c-479 -67 -907 -280 -1251 -624 -356 -357 -572 -803 -630 -1305 -15 -130 -6 -473 15 -591 85 -469 287 -858 615 -1186 347 -347 776 -559 1261 -625 135 -18 425 -18 560 0 485 66 914 278 1261 625 353 353 569 797 629 1291 15 123 12 402 -5 532 -63 479 -278 913 -624 1259 -347 347 -776 559 -1261 625 -131 17 -441 17 -570 -1z m475 -95 c500 -47 948 -260 1296 -617 233 -238 384 -482 488 -789 50 -146 50 -154 12 -154 -16 0 -685 41 -1487 90 -803 50 -1643 101 -1869 115 -575 35 -565 34 -558 53 20 56 108 231 156 310 171 280 436 542 718 711 365 218 820 321 1244 281z m-500 -1654 c28 -12 56 -30 64 -39 18 -23 34 -21 57 4 16 18 27 20 73 16 32 -4 66 -15 82 -26 34 -25 43 -26 59 -6 16 19 73 19 111 0 21 -12 34 -13 48 -5 31 16 61 12 107 -15 42 -25 45 -25 69 -9 32 21 135 14 198 -14 44 -20 107 -82 107 -107 0 -23 -13 -18 -42 15 -14 17 -30 30 -35 30 -5 0 -7 -28 -5 -63 5 -83 -21 -104 -100 -82 -36 9 -37 -7 -1 -79 15 -31 24 -59 20 -62 -16 -16 -69 55 -117 155 -29 58 -55 112 -59 120 -11 22 -36 35 -55 28 -21 -8 -22 -76 -1 -103 18 -24 19 -44 2 -44 -22 0 -72 56 -97 109 -25 55 -53 72 -78 47 -13 -13 -14 -21 -4 -54 7 -22 19 -45 27 -52 19 -16 20 -40 1 -40 -24 0 -66 41 -91 89 -28 55 -42 69 -86 81 -35 10 -59 -1 -59 -28 0 -8 22 -41 50 -73 57 -65 70 -94 70 -150 0 -36 -2 -39 -29 -39 -60 0 -151 110 -185 223 -21 68 -24 73 -68 95 -91 46 -193 3 -205 -86 -11 -80 38 -168 123 -217 58 -34 89 -31 89 10 0 21 5 31 18 33 25 5 47 -16 47 -43 0 -71 -123 -64 -232 12 -154 106 -194 293 -79 370 47 32 137 32 206 -1z m-900 -387 c22 -6 57 -24 78 -41 l38 -30 24 26 c19 21 29 24 47 17 19 -7 24 -17 26 -54 3 -41 8 -51 50 -87 42 -36 72 -50 72 -35 0 4 -6 18 -14 33 -26 51 -29 92 -10 113 23 26 64 24 108 -6 43 -29 43 -29 62 -10 11 10 35 15 77 15 50 0 76 -7 130 -34 l69 -33 24 23 c36 36 133 25 184 -21 18 -16 21 -16 47 5 25 19 35 21 88 15 38 -4 80 -18 116 -37 l57 -31 27 21 c32 26 88 29 125 7 67 -39 69 -39 88 -22 24 22 90 22 120 1 19 -13 28 -14 52 -4 38 16 77 6 112 -28 l28 -26 23 22 c36 34 101 30 160 -9 l46 -30 23 20 c17 17 35 21 84 21 54 0 69 -4 112 -34 48 -32 50 -33 66 -15 18 21 85 26 103 8 7 -7 13 -7 17 -1 3 6 -10 24 -30 42 -27 23 -42 30 -58 25 -58 -19 -72 -17 -84 9 -15 33 -7 53 29 71 63 33 122 5 170 -80 18 -31 41 -60 53 -65 24 -9 78 -65 95 -97 23 -44 10 -47 -31 -5 -46 47 -63 44 -48 -8 16 -55 13 -120 -5 -120 -9 0 -15 9 -15 21 0 36 -59 128 -85 135 -13 3 -29 3 -34 -1 -17 -10 -13 -63 9 -105 16 -32 17 -40 6 -40 -18 0 -70 59 -95 108 -31 61 -121 92 -167 57 -19 -14 -19 -14 0 -15 27 0 104 -47 116 -70 8 -14 8 -26 0 -40 -17 -31 -85 -27 -141 9 -45 28 -89 75 -89 94 0 23 -34 47 -66 47 -50 0 -64 -9 -64 -42 0 -50 16 -68 60 -68 50 0 61 -17 15 -26 -19 -3 -35 -9 -35 -13 0 -4 11 -22 25 -41 28 -38 31 -50 11 -50 -14 0 -46 28 -84 74 -13 16 -29 25 -38 22 -16 -6 -19 9 -4 19 10 6 -30 96 -58 128 -8 9 -26 17 -40 17 -24 0 -24 -2 -18 -47 3 -27 8 -63 12 -80 6 -33 6 -33 -27 -27 -132 24 -170 44 -232 126 -36 47 -71 64 -111 54 -38 -9 -32 -31 23 -92 59 -65 87 -130 74 -171 -14 -40 -31 -39 -88 5 -56 43 -122 145 -132 205 -3 21 -14 48 -24 60 -18 22 -18 22 -19 -34 0 -63 -21 -92 -76 -103 -26 -6 -38 0 -82 34 -28 22 -64 63 -81 90 -36 59 -88 81 -129 54 -20 -13 -23 -21 -18 -47 11 -56 34 -79 72 -75 36 4 49 -17 18 -29 -49 -19 -154 51 -185 124 -23 54 -50 59 -42 8 11 -68 -31 -115 -101 -115 -22 0 -114 87 -155 148 -13 19 -31 32 -43 32 -19 0 -20 -4 -15 -47 3 -27 9 -56 12 -65 13 -34 -24 -32 -96 5 -104 55 -102 24 3 -52 72 -52 89 -120 31 -129 -32 -5 -124 98 -183 203 -28 51 -60 101 -71 111 -21 19 -105 34 -146 26 -41 -8 -81 -54 -88 -103 -12 -80 59 -193 140 -224 54 -21 79 -14 73 20 -4 18 0 26 14 31 26 8 48 -13 48 -46 0 -21 -7 -30 -30 -40 -99 -41 -292 93 -336 234 -15 47 -16 61 -5 98 18 60 37 87 74 103 39 17 108 19 162 4z m-203 -609 c359 -22 483 -33 500 -44 13 -8 113 -42 223 -76 304 -94 347 -112 395 -169 22 -27 40 -58 40 -70 0 -39 -41 -145 -70 -183 -31 -38 -84 -161 -95 -219 -5 -27 -2 -41 15 -62 27 -33 21 -43 -30 -52 -23 -4 -54 -18 -70 -32 -57 -48 -34 -106 101 -260 119 -136 193 -201 269 -237 60 -29 73 -31 170 -31 l105 0 186 78 c109 46 196 89 210 103 48 51 13 140 -70 181 -22 11 -38 23 -35 26 4 3 8 25 9 49 8 109 18 176 31 205 13 29 12 42 -9 133 -19 76 -32 108 -55 135 -31 35 -48 80 -54 143 -2 25 6 46 32 83 69 99 98 126 163 151 l62 24 658 -40 c361 -22 657 -45 657 -50 0 -18 -89 -195 -143 -284 -85 -139 -168 -244 -296 -375 -359 -368 -810 -577 -1334 -619 -406 -33 -853 72 -1206 283 -211 127 -455 345 -599 536 -147 195 -267 432 -335 661 l-16 52 57 -6 c31 -3 272 -18 534 -34z m863 -90 c111 -33 172 -47 178 -41 7 7 18 0 32 -19 41 -56 126 -140 136 -135 5 4 9 21 9 38 0 24 3 28 10 17 8 -12 16 -8 46 23 119 122 253 126 372 11 31 -30 57 -52 60 -50 2 3 -1 35 -7 72 -6 38 -9 70 -6 72 6 6 23 -66 30 -130 4 -32 11 -58 15 -58 4 0 18 21 33 48 14 26 39 60 56 76 17 17 31 36 31 44 0 9 6 12 16 8 9 -3 23 -6 32 -6 9 0 -2 -11 -25 -25 -26 -16 -56 -48 -81 -88 -22 -34 -47 -68 -56 -76 -36 -30 -10 -180 40 -232 46 -48 90 -249 54 -249 -6 0 -10 -26 -10 -57 0 -67 -8 -103 -22 -103 -5 0 -33 20 -61 44 -69 58 -136 81 -309 102 -150 18 -240 14 -274 -11 -17 -12 -13 -12 26 -3 26 6 93 8 160 4 194 -10 321 -47 407 -118 57 -48 69 -73 49 -103 -18 -28 -10 -43 32 -61 69 -28 112 -86 92 -124 -5 -10 -75 -46 -164 -84 -221 -93 -243 -99 -335 -94 -147 9 -227 64 -424 293 -111 130 -114 176 -13 192 70 11 97 62 55 104 -24 24 -22 37 18 143 14 37 38 83 54 101 30 34 79 162 79 207 0 44 -74 134 -134 162 -44 21 -260 94 -411 140 l-50 15 45 0 c27 1 114 -19 215 -49z m112 30 c42 0 51 -3 47 -15 -8 -19 -17 -19 -89 5 -33 11 -49 18 -35 15 14 -3 48 -5 77 -5z m219 -80 l-10 -70 -39 37 c-34 33 -67 81 -67 98 0 3 28 5 63 5 l63 0 -10 -70z m59 39 c-4 -11 -10 -42 -15 -67 -6 -35 -8 -39 -9 -17 -1 45 10 105 21 105 5 0 6 -9 3 -21z m565 -17 c0 -5 -13 -21 -30 -37 -31 -29 -32 -29 -43 23 -5 20 -1 22 34 22 21 0 39 -4 39 -8z"/>
 <path d="M2013 4043 c-10 -3 -13 -51 -13 -189 l0 -185 -31 -61 c-17 -34 -42 -79 -55 -100 -13 -21 -24 -42 -24 -47 0 -5 24 -18 53 -29 l52 -20 3 -83 c2 -46 8 -89 14 -96 15 -18 281 -19 295 0 6 6 13 25 17 41 10 40 56 83 99 91 28 5 47 2 78 -14 48 -25 66 -17 71 31 3 26 10 33 48 48 24 9 46 22 48 29 2 6 -19 54 -47 105 l-51 95 0 183 c0 130 -4 188 -12 196 -9 9 -82 12 -272 11 -144 0 -267 -3 -273 -6z m507 -68 l0 -25 -235 0 -235 0 0 25 0 25 235 0 235 0 0 -25z m0 -140 c0 -62 -1 -65 -20 -53 -17 11 -33 6 -117 -35 l-98 -48 -99 47 c-82 39 -102 45 -118 35 -17 -10 -18 -7 -18 54 l0 65 235 0 235 0 0 -65z m-348 -136 l61 -31 -117 -65 c-65 -36 -119 -64 -121 -61 -6 6 96 188 106 188 5 0 37 -14 71 -31z m356 -66 c29 -53 51 -97 49 -98 -1 -1 -56 28 -121 66 l-119 67 59 31 c32 16 64 30 70 31 6 0 34 -44 62 -97z m-231 1 c-3 -3 -12 -4 -19 -1 -8 3 -5 6 6 6 11 1 17 -2 13 -5z m-127 -114 l0 -60 -60 0 c-57 0 -60 1 -60 25 0 19 13 32 58 59 31 19 58 35 60 35 1 1 2 -26 2 -59z m172 0 l3 -60 -62 0 -63 0 0 60 0 60 59 0 59 0 4 -60z m176 -34 c3 -26 2 -26 -61 -26 l-64 0 -2 61 -2 61 63 -35 c49 -27 64 -41 66 -61z m-348 -141 l0 -65 -60 0 -60 0 0 65 0 65 60 0 60 0 0 -65z m170 52 c0 -8 -9 -22 -19 -31 -11 -10 -27 -33 -36 -52 -12 -25 -22 -34 -40 -34 -24 0 -25 3 -25 65 l0 65 60 0 c44 0 60 -4 60 -13z"/>
 <path d="M2700 2524 c-12 -30 0 -59 39 -91 33 -28 57 -29 71 -3 15 28 5 53 -36 89 -42 38 -61 39 -74 5z"/>
 <path d="M2153 2471 c9 -45 47 -119 64 -125 46 -18 43 36 -4 102 -43 59 -69 69 -60 23z"/>
 <path d="M1623 2163 c-23 -8 -15 -77 11 -102 32 -30 66 -21 66 17 0 45 -46 96 -77 85z"/>
 <path d="M2137 2113 c-23 -22 16 -123 47 -123 26 0 46 39 35 69 -19 49 -60 76 -82 54z"/>
 <path d="M2645 2050 c-12 -38 48 -99 113 -116 34 -9 37 1 12 43 -52 86 -110 120 -125 73z"/>
 <path d="M1340 2018 c0 -24 40 -90 53 -85 22 7 17 27 -17 64 -25 27 -36 33 -36 21z"/>
 <path d="M2437 1968 c11 -61 65 -144 84 -132 13 7 11 51 -2 77 -14 26 -70 87 -81 87 -4 0 -5 -15 -1 -32z"/>
 <path d="M3215 1970 c-14 -22 51 -90 69 -73 14 14 5 43 -20 62 -30 24 -40 26 -49 11z"/>
 <path d="M2219 1535 c-59 -31 -115 -94 -129 -145 -13 -50 -8 -58 22 -36 13 9 41 29 63 44 22 15 56 44 76 64 32 33 111 67 158 68 13 1 12 3 -3 15 -32 24 -132 19 -187 -10z"/>
 <path d="M2268 1424 c-51 -16 -131 -72 -172 -121 -36 -42 -62 -105 -77 -183 -7 -36 -18 -74 -25 -85 -7 -11 -11 -30 -7 -43 5 -20 12 -22 63 -22 32 0 66 -3 75 -7 14 -5 16 -2 10 15 -6 21 -3 22 56 22 53 0 65 -4 85 -25 40 -44 54 -34 54 40 0 58 -2 65 -19 65 -11 0 -23 5 -26 10 -10 16 -33 11 -38 -7 -3 -14 -6 -12 -15 10 -16 37 -12 42 45 56 27 7 65 17 86 22 49 13 60 5 54 -40 -3 -20 -9 -57 -12 -82 l-7 -47 70 -7 c96 -9 117 2 106 58 -4 23 -8 79 -10 124 -2 94 -14 120 -91 196 -68 66 -116 78 -205 51z m122 -144 c0 -5 -24 -10 -52 -10 -38 0 -49 3 -38 10 20 13 90 13 90 0z m54 -49 c3 -5 -2 -12 -11 -15 -22 -9 -212 5 -219 15 -3 5 47 9 110 9 63 0 117 -4 120 -9z"/>
 <path d="M1987 1113 c-4 -3 -7 -11 -7 -17 0 -6 5 -5 12 2 6 6 9 14 7 17 -3 3 -9 2 -12 -2z"/>
 <path d="M1942 1020 c-12 -29 -20 -55 -17 -58 7 -7 47 87 43 100 -2 6 -14 -13 -26 -42z"/>
 <path d="M1932 944 c-16 -8 -20 -14 -12 -19 7 -4 19 0 28 9 21 20 13 26 -16 10z"/>
 <path d="M2170 836 c0 -56 10 -106 21 -106 5 0 9 34 9 75 0 60 -3 75 -15 75 -11 0 -15 -12 -15 -44z"/>
 <path d="M2094 833 c3 -21 6 -48 6 -59 0 -22 37 -41 52 -26 4 4 4 33 1 65 -6 55 -7 57 -36 57 -29 0 -29 -1 -23 -37z"/>
 <path d="M2242 804 c14 -119 30 -123 43 -12 l7 59 47 -6 c69 -10 113 -23 138 -40 21 -15 21 -17 8 -63 -8 -26 -15 -49 -15 -51 0 -6 161 7 168 13 10 11 -61 77 -109 101 -56 29 -143 52 -230 61 l-66 6 9 -68z"/>
 <path d="M2027 853 c-12 -11 -7 -33 7 -33 12 0 26 20 26 36 0 7 -26 5 -33 -3z"/>
 <path d="M1985 840 c-3 -5 -2 -10 4 -10 5 0 13 5 16 10 3 6 2 10 -4 10 -5 0 -13 -4 -16 -10z"/>
 <path d="M1940 775 c0 -33 32 -76 84 -115 49 -36 74 -60 63 -60 -3 0 -33 23 -68 51 -35 28 -76 57 -91 65 -18 9 -25 20 -22 29 5 12 -2 15 -32 15 -46 0 -67 -12 -62 -33 4 -21 81 -109 203 -233 130 -131 179 -159 290 -159 64 0 88 4 120 22 108 59 162 83 187 83 27 0 158 47 158 57 0 11 -25 49 -39 60 -25 19 -67 15 -152 -14 -44 -14 -82 -24 -85 -20 -9 9 5 27 21 27 8 0 39 11 70 24 44 20 55 30 55 48 l0 23 -137 -4 c-77 -2 -170 2 -211 9 -127 20 -316 93 -329 125 -7 20 -23 19 -23 0z m364 -161 c9 -3 16 -14 16 -23 0 -9 7 -25 15 -35 22 -29 18 -53 -12 -92 -42 -51 -86 -45 -103 16 -11 38 -7 57 22 106 20 34 32 39 62 28z"/>
 <path d="M2260 541 c0 -33 4 -62 9 -65 12 -8 44 76 39 100 -2 11 -13 20 -26 22 -21 3 -22 0 -22 -57z"/>
 <path d="M1990 775 c0 -16 158 -78 238 -95 115 -23 282 -36 282 -22 0 6 -26 13 -57 17 -184 19 -233 29 -336 65 -111 40 -127 45 -127 35z"/>
 <path d="M2585 670 c-8 -13 25 -13 45 0 12 8 9 10 -12 10 -15 0 -30 -4 -33 -10z"/>
 </g>
<g id="layer2" fill="#010101" stroke="none">
 <path d="M2020 4549 c-615 -75 -1173 -393 -1550 -880 -184 -238 -329 -539 -404 -834 -51 -205 -60 -283 -61 -550 0 -275 10 -363 66 -576 84 -324 245 -637 457 -890 355 -423 828 -693 1397 -795 143 -26 567 -26 710 0 481 86 880 285 1215 603 201 191 350 393 474 643 107 217 173 418 213 659 25 150 25 552 0 702 -40 241 -106 442 -213 659 -327 659 -922 1103 -1664 1242 -121 22 -513 33 -640 17z m540 -103 c485 -66 914 -278 1261 -625 346 -346 561 -780 624 -1259 17 -130 20 -409 5 -532 -37 -306 -144 -616 -300 -876 -177 -292 -451 -567 -743 -743 -256 -154 -547 -256 -847 -297 -135 -18 -425 -18 -560 0 -485 66 -914 278 -1261 625 -328 328 -530 717 -615 1186 -21 118 -30 461 -15 591 36 314 141 625 301 890 177 292 451 567 743 743 252 152 544 255 837 296 129 18 439 18 570 1z"/>
 <path d="M2077 4349 c-212 -21 -481 -94 -674 -184 -362 -169 -691 -464 -900 -807 -48 -79 -136 -254 -156 -310 -7 -19 -17 -18 558 -53 226 -14 1066 -65 1869 -115 802 -49 1471 -90 1487 -90 38 0 38 8 -12 154 -72 213 -177 412 -311 589 -144 191 -388 409 -599 536 -368 220 -827 322 -1262 280z m481 -311 c8 -8 12 -66 12 -196 l0 -183 51 -95 c28 -51 49 -99 47 -105 -2 -7 -24 -20 -48 -29 -38 -15 -45 -22 -48 -48 -5 -48 -23 -56 -71 -31 -31 16 -50 19 -78 14 -43 -8 -89 -51 -99 -91 -4 -16 -11 -35 -17 -41 -14 -19 -280 -18 -295 0 -6 7 -12 50 -14 96 l-3 83 -52 20 c-29 11 -53 24 -53 29 0 5 11 26 24 47 13 21 38 66 55 100 l31 61 0 185 c0 138 3 186 13 189 6 3 129 6 273 6 190 1 263 -2 272 -11z"/>
 <path d="M2050 3975 l0 -25 235 0 235 0 0 25 0 25 -235 0 -235 0 0 -25z"/>
 <path d="M2050 3835 c0 -61 1 -64 18 -54 16 10 36 4 118 -35 l99 -47 98 48 c84 41 100 46 117 35 19 -12 20 -9 20 53 l0 65 -235 0 -235 0 0 -65z"/>
 <path d="M2041 3638 c-27 -51 -48 -94 -46 -96 2 -3 56 25 121 61 l117 65 -61 31 c-34 17 -66 31 -71 31 -5 0 -32 -42 -60 -92z"/>
 <path d="M2396 3699 l-59 -31 119 -67 c65 -38 120 -67 121 -66 7 4 -102 195 -111 195 -6 -1 -38 -15 -70 -31z"/>
 <path d="M2278 3633 c7 -3 16 -2 19 1 4 3 -2 6 -13 5 -11 0 -14 -3 -6 -6z"/>
 <path d="M2108 3544 c-45 -27 -58 -40 -58 -59 0 -24 3 -25 60 -25 l60 0 0 60 c0 33 -1 60 -2 59 -2 0 -29 -16 -60 -35z"/>
 <path d="M2220 3520 l0 -60 63 0 62 0 -3 60 -4 60 -59 0 -59 0 0 -60z"/>
 <path d="M2391 3521 l2 -61 64 0 c63 0 64 0 61 26 -2 20 -17 34 -66 61 l-63 35 2 -61z"/>
 <path d="M2050 3345 l0 -65 60 0 60 0 0 65 0 65 -60 0 -60 0 0 -65z"/>
 <path d="M2220 3345 c0 -62 1 -65 25 -65 18 0 28 9 40 34 9 19 25 42 36 52 35 32 24 44 -41 44 l-60 0 0 -65z"/>
 <path d="M1759 2697 c-91 -61 -89 -194 6 -304 106 -124 305 -175 305 -78 0 27 -22 48 -47 43 -13 -2 -18 -12 -18 -33 0 -41 -31 -44 -89 -10 -85 49 -134 137 -123 217 12 89 114 132 205 86 44 -22 47 -27 68 -95 34 -113 125 -223 185 -223 27 0 29 3 29 39 0 56 -13 85 -70 150 -28 32 -50 65 -50 73 0 27 24 38 59 28 44 -12 58 -26 86 -81 25 -48 67 -89 91 -89 19 0 18 24 -1 40 -8 7 -20 30 -27 52 -10 33 -9 41 4 54 25 25 53 8 78 -47 25 -53 75 -109 97 -109 17 0 16 20 -2 44 -21 27 -20 95 1 103 19 7 44 -6 55 -28 4 -8 30 -62 59 -120 48 -100 101 -171 117 -155 4 3 -5 31 -20 62 -36 72 -35 88 1 79 79 -22 105 -1 100 82 -2 35 0 63 5 63 5 0 21 -13 35 -30 29 -33 42 -38 42 -15 0 25 -63 87 -107 107 -63 28 -166 35 -198 14 -24 -16 -27 -16 -69 9 -46 27 -76 31 -107 15 -14 -8 -27 -7 -48 5 -38 19 -95 19 -111 0 -16 -20 -25 -19 -59 6 -16 11 -50 22 -82 26 -46 4 -57 2 -73 -16 -23 -25 -39 -27 -57 -4 -8 9 -36 27 -64 39 -69 33 -159 33 -206 1z m1015 -178 c41 -36 51 -61 36 -89 -14 -26 -38 -25 -71 3 -39 32 -51 61 -39 91 13 34 32 33 74 -5z m-561 -71 c47 -66 50 -120 4 -102 -17 6 -55 80 -64 125 -9 46 17 36 60 -23z"/>
 <path d="M903 2305 c-37 -16 -56 -43 -74 -103 -11 -37 -10 -51 5 -98 44 -141 237 -275 336 -234 23 10 30 19 30 40 0 33 -22 54 -48 46 -14 -5 -18 -13 -14 -31 6 -34 -19 -41 -73 -20 -81 31 -152 144 -140 224 7 49 47 95 88 103 41 8 125 -7 146 -26 11 -10 43 -60 71 -111 59 -105 151 -208 183 -203 58 9 41 77 -31 129 -105 76 -107 107 -3 52 72 -37 109 -39 96 -5 -3 9 -9 38 -12 65 -5 43 -4 47 15 47 12 0 30 -13 43 -32 41 -61 133 -148 155 -148 70 0 112 47 101 115 -8 51 19 46 42 -8 31 -73 136 -143 185 -124 31 12 18 33 -18 29 -38 -4 -61 19 -72 75 -5 26 -2 34 18 47 41 27 93 5 129 -54 17 -27 53 -68 81 -90 44 -34 56 -40 82 -34 55 11 76 40 76 103 1 56 1 56 19 34 10 -12 21 -39 24 -60 10 -60 76 -162 132 -205 57 -44 74 -45 88 -5 13 41 -15 106 -74 171 -55 61 -61 83 -23 92 40 10 75 -7 111 -54 62 -82 100 -102 232 -126 33 -6 33 -6 27 27 -4 17 -9 53 -12 80 -6 45 -6 47 18 47 14 0 32 -8 40 -17 28 -32 68 -122 58 -128 -15 -10 -12 -25 4 -19 9 3 25 -6 38 -22 38 -46 70 -74 84 -74 20 0 17 12 -11 50 -14 19 -25 37 -25 41 0 4 16 10 35 13 46 9 35 26 -15 26 -44 0 -60 18 -60 68 0 33 14 42 64 42 32 0 66 -24 66 -47 0 -19 44 -66 89 -94 56 -36 124 -40 141 -9 8 14 8 26 0 40 -12 23 -89 70 -116 70 -19 1 -19 1 0 15 46 35 136 4 167 -57 25 -49 77 -108 95 -108 11 0 10 8 -6 40 -57 112 16 156 79 46 17 -29 31 -63 31 -75 0 -12 6 -21 15 -21 18 0 21 65 5 120 -15 52 2 55 48 8 41 -42 54 -39 31 5 -17 32 -71 88 -95 97 -12 5 -35 34 -53 65 -48 85 -107 113 -170 80 -36 -18 -44 -38 -29 -71 12 -26 26 -28 84 -9 16 5 31 -2 58 -25 20 -18 33 -36 30 -42 -4 -6 -10 -6 -17 1 -18 18 -85 13 -103 -8 -16 -18 -18 -17 -66 15 -43 30 -58 34 -112 34 -49 0 -67 -4 -84 -21 l-23 -20 -46 30 c-59 39 -124 43 -160 9 l-23 -22 -28 26 c-35 34 -74 44 -112 28 -24 -10 -33 -9 -52 4 -30 21 -96 21 -120 -1 -19 -17 -21 -17 -88 22 -37 22 -93 19 -125 -7 l-27 -21 -57 31 c-36 19 -78 33 -116 37 -53 6 -63 4 -88 -15 -26 -21 -29 -21 -47 -5 -51 46 -148 57 -184 21 l-24 -23 -69 33 c-54 27 -80 34 -130 34 -42 0 -66 -5 -77 -15 -19 -19 -19 -19 -62 10 -44 30 -85 32 -108 6 -19 -21 -16 -62 10 -113 8 -15 14 -29 14 -33 0 -15 -30 -1 -72 35 -42 36 -47 46 -50 87 -2 37 -7 47 -26 54 -18 7 -28 4 -47 -17 l-24 -26 -38 30 c-63 50 -172 67 -240 37z m781 -177 c41 -58 -1 -113 -50 -67 -17 16 -24 33 -24 60 0 55 38 58 74 7z m509 -26 c29 -32 37 -67 21 -91 -8 -11 -22 -21 -30 -21 -31 0 -70 101 -47 123 12 13 40 7 56 -11z m529 -59 c32 -36 72 -102 65 -110 -17 -16 -107 32 -132 71 -38 58 19 90 67 39z m-1314 -95 c-8 -24 -26 -17 -47 17 -34 59 -26 76 15 32 19 -21 34 -43 32 -49z m1069 20 c38 -41 53 -69 53 -102 0 -35 -13 -39 -37 -13 -37 40 -76 147 -55 147 5 0 22 -15 39 -32z m787 -9 c25 -19 34 -48 20 -62 -18 -17 -83 51 -69 73 9 15 19 13 49 -11z"/>
 <path d="M287 1688 c68 -229 188 -466 335 -661 144 -191 388 -409 599 -536 353 -211 800 -316 1206 -283 524 42 975 251 1334 619 128 131 211 236 296 375 54 89 143 266 143 284 0 5 -296 28 -657 50 l-658 40 -62 -24 c-65 -25 -94 -52 -163 -151 -26 -37 -34 -58 -32 -83 6 -63 23 -108 54 -143 23 -27 36 -59 55 -135 21 -91 22 -104 9 -133 -13 -29 -23 -96 -31 -205 -1 -24 -5 -46 -9 -49 -3 -3 13 -15 35 -26 83 -41 118 -130 70 -181 -14 -14 -101 -57 -210 -103 l-186 -78 -105 0 c-97 0 -110 2 -170 31 -76 36 -150 101 -269 237 -135 154 -158 212 -101 260 16 14 47 28 70 32 51 9 57 19 30 52 -17 21 -20 35 -15 62 11 58 64 181 95 219 29 38 70 144 70 183 0 12 -18 43 -40 70 -48 57 -91 75 -395 169 -110 34 -210 68 -223 76 -17 11 -141 22 -500 44 -262 16 -503 31 -534 34 l-57 6 16 -52z"/>
 <path d="M1515 1644 c151 -46 367 -119 411 -140 60 -28 134 -118 134 -162 0 -45 -49 -173 -79 -207 -16 -18 -40 -64 -54 -101 -40 -106 -42 -119 -18 -143 42 -42 15 -93 -55 -104 -101 -16 -98 -62 13 -192 197 -229 277 -284 424 -293 92 -5 114 1 335 94 89 38 159 74 164 84 20 38 -23 96 -92 124 -42 18 -50 33 -32 61 20 30 8 55 -49 103 -86 71 -213 108 -407 118 -67 4 -134 2 -160 -4 -39 -9 -43 -9 -26 3 34 25 124 29 274 11 173 -21 240 -44 309 -102 28 -24 56 -44 61 -44 14 0 22 36 22 103 0 31 4 57 10 57 36 0 -8 201 -54 249 -50 52 -76 202 -40 232 9 8 34 42 56 76 25 40 55 72 81 88 23 14 34 25 25 25 -9 0 -23 3 -32 6 -10 4 -16 1 -16 -8 0 -8 -14 -27 -31 -44 -17 -16 -42 -50 -56 -76 -15 -27 -29 -48 -33 -48 -4 0 -11 26 -15 58 -7 64 -24 136 -30 130 -3 -2 0 -34 6 -72 6 -37 9 -69 7 -72 -3 -2 -29 20 -60 50 -119 115 -253 111 -372 -11 -30 -31 -38 -35 -46 -23 -7 11 -10 7 -10 -17 0 -17 -4 -34 -9 -38 -10 -5 -95 79 -136 135 -14 19 -25 26 -32 19 -6 -6 -67 8 -178 41 -101 30 -188 50 -215 49 l-45 0 50 -15z m891 -99 c15 -12 16 -14 3 -15 -47 -1 -126 -35 -158 -68 -20 -20 -54 -49 -76 -64 -22 -15 -50 -35 -63 -44 -30 -22 -35 -14 -22 36 14 51 70 114 129 145 55 29 155 34 187 10z m-16 -115 c37 -11 119 -85 152 -138 15 -25 21 -52 22 -115 2 -45 6 -101 10 -124 11 -56 -10 -67 -106 -58 l-70 7 7 47 c3 25 9 62 12 82 6 45 -5 53 -54 40 -21 -5 -59 -15 -86 -22 -57 -14 -61 -19 -45 -56 9 -22 12 -24 15 -10 5 18 28 23 38 7 3 -5 15 -10 26 -10 17 0 19 -7 19 -65 0 -74 -14 -84 -54 -40 -20 21 -32 25 -85 25 -59 0 -62 -1 -56 -22 6 -17 4 -20 -10 -15 -9 4 -43 7 -75 7 -51 0 -58 2 -63 22 -4 13 0 32 7 43 7 11 18 49 25 85 23 120 62 183 153 252 48 36 120 66 163 67 11 1 36 -3 55 -9z m-398 -332 c-7 -7 -12 -8 -12 -2 0 14 12 26 19 19 2 -3 -1 -11 -7 -17z m-41 -94 c-29 -64 -37 -50 -9 16 12 29 24 48 26 42 2 -6 -6 -32 -17 -58z m-3 -70 c-9 -9 -21 -13 -28 -9 -8 5 -4 11 12 19 29 16 37 10 16 -10z m252 -129 c0 -77 -13 -100 -24 -44 -12 60 -7 119 9 119 12 0 15 -15 15 -75z m-47 8 c3 -32 3 -61 -1 -65 -15 -15 -52 4 -52 26 0 11 -3 38 -6 59 -6 36 -6 37 23 37 29 0 30 -2 36 -57z m271 31 c33 -9 80 -26 105 -39 48 -24 119 -90 109 -101 -7 -6 -168 -19 -168 -13 0 2 7 25 15 51 13 46 13 48 -8 63 -25 17 -69 30 -138 40 l-47 6 -7 -59 c-13 -111 -29 -107 -43 12 l-9 68 66 -6 c36 -4 93 -14 125 -22z m-364 12 c0 -16 -14 -36 -26 -36 -14 0 -19 22 -7 33 7 8 33 10 33 3z m-55 -16 c-3 -5 -11 -10 -16 -10 -6 0 -7 5 -4 10 3 6 11 10 16 10 6 0 7 -4 4 -10z m-42 -65 c13 -32 202 -105 329 -125 41 -7 134 -11 211 -9 l137 4 0 -23 c0 -18 -11 -28 -55 -48 -31 -13 -62 -24 -70 -24 -16 0 -30 -18 -21 -27 3 -4 41 6 85 20 85 29 127 33 152 14 14 -11 39 -49 39 -60 0 -10 -131 -57 -158 -57 -25 0 -79 -24 -187 -83 -32 -18 -56 -22 -120 -22 -111 0 -160 28 -290 159 -122 124 -199 212 -203 233 -5 21 16 33 62 33 30 0 37 -3 32 -15 -3 -9 4 -20 22 -29 15 -8 56 -37 91 -65 35 -28 65 -51 68 -51 11 0 -14 24 -63 60 -52 39 -84 82 -84 115 0 19 16 20 23 0z m154 -35 c103 -36 152 -46 336 -65 31 -4 57 -11 57 -17 0 -14 -167 -1 -282 22 -80 17 -238 79 -238 95 0 10 16 5 127 -35z m513 -70 c-20 -13 -53 -13 -45 0 3 6 18 10 33 10 21 0 24 -2 12 -10z"/>
 <path d="M2300 1280 c-11 -7 0 -10 38 -10 28 0 52 5 52 10 0 13 -70 13 -90 0z"/>
 <path d="M2214 1231 c7 -10 197 -24 219 -15 40 15 -2 24 -109 24 -63 0 -113 -4 -110 -9z"/>
 <path d="M2242 586 c-29 -49 -33 -68 -22 -106 17 -61 61 -67 103 -16 30 39 34 63 12 92 -8 10 -15 26 -15 35 0 17 -19 29 -45 29 -7 0 -22 -15 -33 -34z m66 -10 c5 -24 -27 -108 -39 -100 -5 3 -9 32 -9 65 0 57 1 60 22 57 13 -2 24 -11 26 -22z"/>
 <path d="M1795 1630 c72 -24 81 -24 89 -5 4 12 -5 15 -47 15 -29 0 -63 2 -77 5 -14 3 2 -4 35 -15z"/>
 <path d="M1940 1625 c0 -17 33 -65 67 -98 l39 -37 10 70 10 70 -63 0 c-35 0 -63 -2 -63 -5z"/>
 <path d="M2096 1583 c-3 -21 -5 -51 -5 -68 1 -22 3 -18 9 17 5 25 11 56 15 67 3 12 2 21 -3 21 -5 0 -12 -17 -16 -37z"/>
 <path d="M2607 1568 c11 -52 12 -52 43 -23 17 16 30 32 30 37 0 4 -18 8 -39 8 -35 0 -39 -2 -34 -22z"/>
 </g>

</svg>