<!DOCTYPE svg PUBLIC "-//W3C//DTD SVG 20010904//EN" "http://www.w3.org/TR/2001/REC-SVG-20010904/DTD/svg10.dtd">
<svg version="1.0" xmlns="http://www.w3.org/2000/svg" width="170px" height="200px" viewBox="0 0 1700 2000" preserveAspectRatio="xMidYMid meet">
<g id="layer1" fill="#3c1007" stroke="none">
 <path d="M1470 344 c0 -9 5 -14 12 -12 18 6 21 28 4 28 -9 0 -16 -7 -16 -16z"/>
 <path d="M1290 235 c0 -11 12 -15 50 -15 38 0 50 4 50 15 0 11 -12 15 -50 15 -38 0 -50 -4 -50 -15z"/>
 </g>
<g id="layer2" fill="#f4411e" stroke="none">
 <path d="M1287 564 c-4 -4 -7 -29 -7 -55 l0 -48 -47 -3 -48 -3 0 -55 0 -55 47 -3 47 -3 3 -52 3 -52 55 0 55 0 3 52 3 52 42 3 42 3 0 55 0 55 -42 3 -42 3 -3 52 -3 52 -50 3 c-28 2 -54 0 -58 -4z"/>
 </g>
<g id="layer3" fill="#31c0d8" stroke="none">
 <path d="M1246 724 c-71 -22 -165 -118 -195 -199 -19 -50 -22 -74 -19 -145 6 -103 31 -164 98 -230 61 -62 110 -83 197 -88 60 -4 80 0 126 21 68 31 128 91 164 165 24 50 28 69 28 147 0 76 -4 99 -26 146 -73 155 -226 230 -373 183z m196 -161 l3 -48 43 -3 42 -3 0 -109 0 -109 -42 -3 -43 -3 -3 -52 -3 -53 -99 0 -99 0 -3 53 -3 52 -47 3 -48 3 0 109 0 109 48 3 47 3 3 48 3 47 99 0 99 0 3 -47z"/>
 </g>
<g id="layer4" fill="#000101" stroke="none">
 <path d="M487 1965 c-102 -78 -240 -261 -326 -432 -117 -233 -161 -440 -161 -755 0 -185 19 -300 62 -380 37 -70 111 -149 166 -177 136 -69 347 -70 545 -2 l55 19 77 -24 c41 -13 80 -24 86 -24 5 0 45 -35 87 -79 66 -67 85 -81 134 -95 71 -20 184 -21 254 0 97 28 189 132 220 246 18 68 17 196 -1 273 -9 38 -16 138 -19 275 -4 240 -18 324 -80 515 -79 243 -252 512 -407 635 -75 59 -145 52 -181 -20 -16 -31 -18 -70 -18 -343 0 -283 -2 -311 -19 -345 -52 -101 -216 -100 -262 2 -17 37 -19 71 -19 344 0 325 -4 352 -51 386 -39 27 -90 20 -142 -19z m103 -371 c5 -294 7 -322 26 -364 23 -50 80 -105 130 -126 80 -33 189 -8 251 57 65 69 67 81 73 434 4 282 7 320 21 323 9 2 51 -34 102 -87 252 -265 397 -645 397 -1043 l0 -88 -49 35 c-65 47 -123 66 -201 67 -157 1 -294 -106 -350 -273 -18 -52 -21 -81 -18 -155 l4 -91 -72 24 -73 24 -95 -30 c-226 -73 -423 -57 -533 42 -79 72 -120 190 -130 372 -16 333 77 677 259 950 62 94 219 260 239 253 11 -4 15 -65 19 -324z m880 -910 c62 -33 94 -70 129 -144 22 -46 26 -69 26 -145 0 -78 -4 -98 -27 -145 -35 -72 -80 -117 -146 -148 -45 -20 -65 -23 -125 -20 -166 9 -266 118 -275 298 -5 114 20 183 93 256 89 89 215 108 325 48z"/>
 <path d="M174 735 c-11 -28 4 -114 30 -170 31 -69 101 -144 166 -179 58 -31 80 -25 80 24 0 22 -8 30 -40 45 -88 40 -148 128 -159 235 -6 53 -7 55 -39 58 -22 2 -34 -2 -38 -13z"/>
 <path d="M1227 624 c-4 -4 -7 -27 -7 -51 l0 -43 -39 0 c-21 0 -44 -6 -50 -14 -8 -9 -11 -52 -9 -127 l3 -114 47 -3 47 -3 3 -52 3 -52 104 -3 c67 -2 108 1 117 9 8 7 14 30 14 55 l0 43 43 3 42 3 0 125 0 125 -42 3 -42 3 -3 47 -3 47 -111 3 c-60 1 -113 -1 -117 -4z m155 -126 l3 -53 42 -3 c41 -3 41 -4 45 -45 l3 -42 -45 0 -45 0 -3 -57 -3 -58 -39 0 -39 0 -3 58 -3 57 -47 3 -48 3 0 39 0 39 48 3 47 3 3 53 3 52 39 0 39 0 3 -52z"/>
 </g>
<g id="layer5" fill="#e7eced" stroke="none">
 <path d="M460 1843 c-228 -235 -361 -533 -401 -898 -14 -128 -6 -325 15 -404 34 -125 116 -230 211 -272 106 -47 282 -42 451 12 l95 30 76 -25 c42 -14 79 -24 83 -21 4 2 5 48 2 102 -3 82 -1 108 18 162 54 161 175 254 330 253 78 -1 136 -20 201 -67 27 -19 54 -35 59 -35 6 0 10 39 10 98 0 321 -88 623 -255 876 -59 90 -237 286 -260 286 -6 0 -19 -8 -28 -17 -13 -15 -16 -63 -19 -333 -3 -276 -5 -320 -21 -355 -40 -89 -113 -131 -217 -123 -78 6 -135 43 -170 113 -25 50 -25 52 -28 365 -2 173 -8 323 -13 332 -18 33 -44 18 -139 -79z m-230 -1148 c0 -89 87 -221 169 -254 22 -10 31 -20 31 -37 0 -30 -4 -30 -66 5 -93 54 -160 157 -171 266 -5 51 -4 55 16 55 17 0 21 -6 21 -35z"/>
 </g>

</svg>